<svg width="2337" height="584" viewBox="0 0 2337 584" fill="none" xmlns="http://www.w3.org/2000/svg">
<rect x="5" y="5" width="2327" height="574" rx="145" fill="#3D2468" stroke="#1C074A" stroke-width="10"/>
<circle cx="155.5" cy="291.5" r="37.5" fill="#287836"/>
<path d="M303.857 320H287.379L312.486 247.273H332.301L357.372 320H340.895L322.678 263.892H322.109L303.857 320ZM302.827 291.413H341.747V303.416H302.827V291.413ZM387.947 321.065C382.36 321.065 377.554 319.882 373.53 317.514C369.529 315.123 366.451 311.809 364.297 307.571C362.166 303.333 361.101 298.456 361.101 292.94C361.101 287.353 362.178 282.453 364.332 278.239C366.51 274.001 369.6 270.698 373.601 268.331C377.602 265.94 382.36 264.744 387.876 264.744C392.635 264.744 396.802 265.608 400.376 267.337C403.951 269.065 406.78 271.491 408.864 274.616C410.947 277.741 412.095 281.411 412.308 285.625H398.033C397.63 282.902 396.565 280.713 394.837 279.055C393.132 277.375 390.895 276.534 388.125 276.534C385.781 276.534 383.733 277.173 381.982 278.452C380.253 279.706 378.904 281.541 377.933 283.956C376.963 286.371 376.477 289.295 376.477 292.727C376.477 296.207 376.951 299.167 377.898 301.605C378.868 304.044 380.23 305.902 381.982 307.18C383.733 308.459 385.781 309.098 388.125 309.098C389.853 309.098 391.404 308.743 392.777 308.033C394.174 307.322 395.322 306.293 396.222 304.943C397.145 303.57 397.749 301.925 398.033 300.007H412.308C412.071 304.174 410.935 307.843 408.899 311.016C406.887 314.164 404.105 316.626 400.554 318.402C397.003 320.178 392.801 321.065 387.947 321.065ZM446.639 321.065C441.052 321.065 436.246 319.882 432.221 317.514C428.22 315.123 425.143 311.809 422.988 307.571C420.858 303.333 419.792 298.456 419.792 292.94C419.792 287.353 420.869 282.453 423.024 278.239C425.202 274.001 428.291 270.698 432.292 268.331C436.293 265.94 441.052 264.744 446.568 264.744C451.326 264.744 455.493 265.608 459.068 267.337C462.643 269.065 465.472 271.491 467.555 274.616C469.638 277.741 470.787 281.411 471 285.625H456.724C456.322 282.902 455.256 280.713 453.528 279.055C451.824 277.375 449.586 276.534 446.816 276.534C444.473 276.534 442.425 277.173 440.673 278.452C438.945 279.706 437.595 281.541 436.625 283.956C435.654 286.371 435.169 289.295 435.169 292.727C435.169 296.207 435.642 299.167 436.589 301.605C437.56 304.044 438.921 305.902 440.673 307.18C442.425 308.459 444.473 309.098 446.816 309.098C448.545 309.098 450.095 308.743 451.468 308.033C452.865 307.322 454.013 306.293 454.913 304.943C455.836 303.57 456.44 301.925 456.724 300.007H471C470.763 304.174 469.627 307.843 467.591 311.016C465.578 314.164 462.797 316.626 459.245 318.402C455.694 320.178 451.492 321.065 446.639 321.065ZM505.543 321.065C499.933 321.065 495.103 319.929 491.055 317.656C487.03 315.36 483.929 312.116 481.751 307.926C479.573 303.712 478.484 298.729 478.484 292.976C478.484 287.365 479.573 282.441 481.751 278.203C483.929 273.965 486.995 270.663 490.948 268.295C494.925 265.928 499.589 264.744 504.94 264.744C508.538 264.744 511.888 265.324 514.989 266.484C518.114 267.621 520.837 269.337 523.157 271.634C525.501 273.93 527.324 276.818 528.626 280.298C529.928 283.755 530.579 287.803 530.579 292.443V296.598H484.521V287.223H516.339C516.339 285.045 515.865 283.116 514.918 281.435C513.971 279.754 512.657 278.44 510.977 277.493C509.319 276.522 507.39 276.037 505.188 276.037C502.892 276.037 500.856 276.57 499.08 277.635C497.328 278.677 495.955 280.085 494.961 281.861C493.967 283.613 493.458 285.566 493.434 287.72V296.634C493.434 299.332 493.931 301.664 494.925 303.629C495.943 305.594 497.376 307.109 499.222 308.175C501.069 309.24 503.259 309.773 505.792 309.773C507.473 309.773 509.012 309.536 510.408 309.062C511.805 308.589 513.001 307.879 513.995 306.932C514.989 305.985 515.747 304.825 516.268 303.452L530.259 304.375C529.549 307.737 528.093 310.672 525.891 313.182C523.713 315.668 520.896 317.609 517.44 319.006C514.007 320.379 510.041 321.065 505.543 321.065ZM585.835 281.009L571.985 281.861C571.748 280.677 571.239 279.612 570.458 278.665C569.677 277.694 568.647 276.925 567.369 276.357C566.114 275.765 564.611 275.469 562.859 275.469C560.515 275.469 558.538 275.966 556.928 276.96C555.318 277.931 554.513 279.233 554.513 280.866C554.513 282.169 555.034 283.269 556.076 284.169C557.118 285.069 558.905 285.791 561.438 286.335L571.31 288.324C576.613 289.413 580.567 291.165 583.171 293.58C585.775 295.994 587.077 299.167 587.077 303.097C587.077 306.671 586.024 309.808 583.917 312.507C581.834 315.206 578.969 317.313 575.323 318.828C571.701 320.32 567.522 321.065 562.788 321.065C555.567 321.065 549.814 319.562 545.529 316.555C541.268 313.525 538.77 309.406 538.036 304.197L552.915 303.416C553.365 305.618 554.454 307.299 556.183 308.459C557.911 309.595 560.124 310.163 562.823 310.163C565.475 310.163 567.605 309.654 569.215 308.636C570.849 307.595 571.677 306.257 571.701 304.624C571.677 303.25 571.097 302.126 569.961 301.25C568.825 300.35 567.073 299.664 564.705 299.19L555.259 297.308C549.933 296.243 545.967 294.396 543.363 291.768C540.782 289.141 539.492 285.791 539.492 281.719C539.492 278.215 540.439 275.196 542.333 272.663C544.251 270.13 546.938 268.177 550.394 266.804C553.874 265.431 557.946 264.744 562.61 264.744C569.499 264.744 574.921 266.2 578.874 269.112C582.852 272.024 585.172 275.99 585.835 281.009ZM641.987 281.009L628.137 281.861C627.901 280.677 627.392 279.612 626.61 278.665C625.829 277.694 624.799 276.925 623.521 276.357C622.266 275.765 620.763 275.469 619.011 275.469C616.667 275.469 614.69 275.966 613.081 276.96C611.471 277.931 610.666 279.233 610.666 280.866C610.666 282.169 611.187 283.269 612.228 284.169C613.27 285.069 615.057 285.791 617.591 286.335L627.463 288.324C632.766 289.413 636.719 291.165 639.324 293.58C641.928 295.994 643.23 299.167 643.23 303.097C643.23 306.671 642.176 309.808 640.069 312.507C637.986 315.206 635.121 317.313 631.475 318.828C627.853 320.32 623.675 321.065 618.94 321.065C611.719 321.065 605.967 319.562 601.681 316.555C597.42 313.525 594.922 309.406 594.189 304.197L609.068 303.416C609.518 305.618 610.607 307.299 612.335 308.459C614.063 309.595 616.277 310.163 618.975 310.163C621.627 310.163 623.758 309.654 625.368 308.636C627.001 307.595 627.83 306.257 627.853 304.624C627.83 303.25 627.25 302.126 626.113 301.25C624.977 300.35 623.225 299.664 620.858 299.19L611.412 297.308C606.085 296.243 602.119 294.396 599.515 291.768C596.935 289.141 595.645 285.791 595.645 281.719C595.645 278.215 596.592 275.196 598.485 272.663C600.403 270.13 603.09 268.177 606.547 266.804C610.027 265.431 614.099 264.744 618.762 264.744C625.652 264.744 631.073 266.2 635.027 269.112C639.004 272.024 641.324 275.99 641.987 281.009ZM724.409 270.781C723.912 269.053 723.213 267.526 722.314 266.2C721.414 264.851 720.313 263.714 719.011 262.791C717.733 261.844 716.265 261.122 714.608 260.625C712.974 260.128 711.163 259.879 709.174 259.879C705.458 259.879 702.19 260.803 699.373 262.649C696.58 264.496 694.402 267.183 692.839 270.71C691.277 274.214 690.495 278.499 690.495 283.565C690.495 288.632 691.265 292.94 692.804 296.491C694.342 300.043 696.52 302.753 699.338 304.624C702.155 306.47 705.481 307.393 709.316 307.393C712.797 307.393 715.768 306.778 718.23 305.547C720.716 304.292 722.609 302.528 723.912 300.256C725.237 297.983 725.9 295.296 725.9 292.195L729.025 292.656H710.275V281.08H740.708V290.241C740.708 296.634 739.359 302.126 736.66 306.719C733.961 311.288 730.244 314.815 725.51 317.301C720.775 319.763 715.353 320.994 709.245 320.994C702.427 320.994 696.438 319.491 691.277 316.484C686.116 313.454 682.091 309.157 679.203 303.594C676.338 298.007 674.906 291.378 674.906 283.707C674.906 277.812 675.758 272.557 677.463 267.94C679.191 263.3 681.606 259.37 684.707 256.151C687.808 252.931 691.419 250.481 695.538 248.8C699.657 247.119 704.12 246.278 708.926 246.278C713.045 246.278 716.88 246.882 720.431 248.089C723.983 249.273 727.131 250.954 729.877 253.132C732.647 255.31 734.908 257.902 736.66 260.909C738.412 263.892 739.537 267.183 740.034 270.781H724.409ZM751.974 320V265.455H766.641V274.972H767.209C768.203 271.586 769.872 269.029 772.216 267.301C774.56 265.549 777.259 264.673 780.312 264.673C781.07 264.673 781.887 264.721 782.763 264.815C783.639 264.91 784.408 265.04 785.071 265.206V278.629C784.361 278.416 783.378 278.227 782.124 278.061C780.869 277.895 779.721 277.812 778.679 277.812C776.454 277.812 774.465 278.298 772.713 279.268C770.985 280.215 769.612 281.541 768.594 283.246C767.599 284.95 767.102 286.915 767.102 289.141V320H751.974ZM806.884 321.03C803.404 321.03 800.302 320.426 797.58 319.219C794.857 317.988 792.703 316.177 791.117 313.786C789.554 311.371 788.773 308.364 788.773 304.766C788.773 301.735 789.329 299.19 790.442 297.131C791.555 295.071 793.07 293.414 794.988 292.159C796.905 290.904 799.083 289.957 801.522 289.318C803.984 288.679 806.564 288.229 809.263 287.969C812.435 287.637 814.992 287.33 816.934 287.045C818.875 286.738 820.284 286.288 821.159 285.696C822.035 285.104 822.473 284.228 822.473 283.068V282.855C822.473 280.606 821.763 278.866 820.343 277.635C818.946 276.404 816.957 275.788 814.377 275.788C811.654 275.788 809.488 276.392 807.878 277.599C806.268 278.783 805.203 280.275 804.682 282.074L790.691 280.938C791.401 277.623 792.798 274.759 794.881 272.344C796.964 269.905 799.651 268.035 802.942 266.733C806.257 265.407 810.092 264.744 814.448 264.744C817.478 264.744 820.378 265.099 823.148 265.81C825.942 266.52 828.416 267.621 830.57 269.112C832.748 270.604 834.464 272.521 835.719 274.865C836.974 277.185 837.601 279.967 837.601 283.21V320H823.255V312.436H822.828C821.953 314.141 820.781 315.644 819.313 316.946C817.845 318.224 816.081 319.231 814.022 319.964C811.962 320.675 809.583 321.03 806.884 321.03ZM811.216 310.589C813.442 310.589 815.407 310.152 817.111 309.276C818.816 308.376 820.153 307.169 821.124 305.653C822.095 304.138 822.58 302.422 822.58 300.504V294.716C822.106 295.024 821.455 295.308 820.627 295.568C819.822 295.805 818.91 296.03 817.892 296.243C816.874 296.432 815.856 296.61 814.838 296.776C813.82 296.918 812.897 297.048 812.069 297.166C810.293 297.427 808.742 297.841 807.417 298.409C806.091 298.977 805.061 299.747 804.327 300.717C803.593 301.664 803.226 302.848 803.226 304.268C803.226 306.328 803.972 307.902 805.463 308.991C806.979 310.057 808.896 310.589 811.216 310.589ZM864.466 288.466V320H849.338V265.455H863.755V275.078H864.395C865.602 271.906 867.626 269.396 870.467 267.55C873.308 265.679 876.752 264.744 880.801 264.744C884.589 264.744 887.891 265.573 890.708 267.23C893.526 268.887 895.716 271.255 897.278 274.332C898.841 277.386 899.622 281.032 899.622 285.27V320H884.494V287.969C884.518 284.631 883.665 282.027 881.937 280.156C880.209 278.262 877.83 277.315 874.799 277.315C872.763 277.315 870.964 277.753 869.402 278.629C867.863 279.505 866.655 280.784 865.779 282.464C864.927 284.122 864.489 286.122 864.466 288.466ZM940.558 265.455V276.818H907.71V265.455H940.558ZM915.167 252.386H930.295V303.239C930.295 304.635 930.508 305.724 930.934 306.506C931.36 307.263 931.952 307.796 932.71 308.104C933.491 308.411 934.39 308.565 935.408 308.565C936.119 308.565 936.829 308.506 937.539 308.388C938.249 308.246 938.794 308.139 939.173 308.068L941.552 319.325C940.794 319.562 939.729 319.834 938.356 320.142C936.983 320.473 935.314 320.675 933.349 320.746C929.703 320.888 926.507 320.402 923.761 319.29C921.038 318.177 918.919 316.449 917.404 314.105C915.889 311.761 915.143 308.802 915.167 305.227V252.386ZM974.684 321.065C969.073 321.065 964.244 319.929 960.195 317.656C956.171 315.36 953.069 312.116 950.891 307.926C948.713 303.712 947.624 298.729 947.624 292.976C947.624 287.365 948.713 282.441 950.891 278.203C953.069 273.965 956.135 270.663 960.089 268.295C964.066 265.928 968.73 264.744 974.08 264.744C977.679 264.744 981.029 265.324 984.13 266.484C987.255 267.621 989.978 269.337 992.298 271.634C994.641 273.93 996.464 276.818 997.766 280.298C999.068 283.755 999.719 287.803 999.719 292.443V296.598H953.661V287.223H985.479C985.479 285.045 985.006 283.116 984.059 281.435C983.112 279.754 981.798 278.44 980.117 277.493C978.46 276.522 976.531 276.037 974.329 276.037C972.032 276.037 969.996 276.57 968.221 277.635C966.469 278.677 965.096 280.085 964.102 281.861C963.107 283.613 962.598 285.566 962.575 287.72V296.634C962.575 299.332 963.072 301.664 964.066 303.629C965.084 305.594 966.516 307.109 968.363 308.175C970.21 309.24 972.399 309.773 974.933 309.773C976.613 309.773 978.152 309.536 979.549 309.062C980.946 308.589 982.141 307.879 983.136 306.932C984.13 305.985 984.888 304.825 985.408 303.452L999.4 304.375C998.69 307.737 997.234 310.672 995.032 313.182C992.854 315.668 990.037 317.609 986.58 319.006C983.147 320.379 979.182 321.065 974.684 321.065ZM1029.69 320.888C1025.55 320.888 1021.8 319.822 1018.43 317.692C1015.1 315.537 1012.44 312.377 1010.48 308.21C1008.54 304.02 1007.57 298.883 1007.57 292.798C1007.57 286.548 1008.57 281.352 1010.59 277.209C1012.6 273.042 1015.27 269.929 1018.61 267.869C1021.97 265.786 1025.65 264.744 1029.66 264.744C1032.71 264.744 1035.25 265.265 1037.29 266.307C1039.35 267.325 1041.01 268.603 1042.26 270.142C1043.54 271.657 1044.51 273.149 1045.17 274.616H1045.64V247.273H1060.73V320H1045.81V311.264H1045.17C1044.46 312.779 1043.46 314.283 1042.16 315.774C1040.88 317.242 1039.21 318.461 1037.15 319.432C1035.11 320.402 1032.63 320.888 1029.69 320.888ZM1034.49 308.849C1036.92 308.849 1038.98 308.187 1040.66 306.861C1042.37 305.511 1043.67 303.629 1044.57 301.214C1045.49 298.8 1045.96 295.971 1045.96 292.727C1045.96 289.484 1045.51 286.667 1044.61 284.276C1043.71 281.884 1042.4 280.038 1040.7 278.736C1039 277.434 1036.92 276.783 1034.49 276.783C1032 276.783 1029.9 277.457 1028.2 278.807C1026.5 280.156 1025.2 282.027 1024.33 284.418C1023.45 286.809 1023.01 289.579 1023.01 292.727C1023.01 295.9 1023.45 298.705 1024.33 301.143C1025.23 303.558 1026.52 305.452 1028.2 306.825C1029.9 308.175 1032 308.849 1034.49 308.849Z" fill="white"/>
<path d="M1201.45 254V184.182H1209.91V215.273H1247.14V184.182H1255.59V254H1247.14V222.773H1209.91V254H1201.45ZM1292.7 255.091C1287.97 255.091 1283.82 253.966 1280.26 251.716C1276.71 249.466 1273.94 246.318 1271.94 242.273C1269.96 238.227 1268.97 233.5 1268.97 228.091C1268.97 222.636 1269.96 217.875 1271.94 213.807C1273.94 209.739 1276.71 206.58 1280.26 204.33C1283.82 202.08 1287.97 200.955 1292.7 200.955C1297.43 200.955 1301.56 202.08 1305.11 204.33C1308.68 206.58 1311.45 209.739 1313.43 213.807C1315.43 217.875 1316.43 222.636 1316.43 228.091C1316.43 233.5 1315.43 238.227 1313.43 242.273C1311.45 246.318 1308.68 249.466 1305.11 251.716C1301.56 253.966 1297.43 255.091 1292.7 255.091ZM1292.7 247.864C1296.29 247.864 1299.24 246.943 1301.56 245.102C1303.88 243.261 1305.6 240.841 1306.71 237.841C1307.82 234.841 1308.38 231.591 1308.38 228.091C1308.38 224.591 1307.82 221.33 1306.71 218.307C1305.6 215.284 1303.88 212.841 1301.56 210.977C1299.24 209.114 1296.29 208.182 1292.7 208.182C1289.11 208.182 1286.15 209.114 1283.84 210.977C1281.52 212.841 1279.8 215.284 1278.69 218.307C1277.57 221.33 1277.02 224.591 1277.02 228.091C1277.02 231.591 1277.57 234.841 1278.69 237.841C1279.8 240.841 1281.52 243.261 1283.84 245.102C1286.15 246.943 1289.11 247.864 1292.7 247.864ZM1336.75 184.182V254H1328.71V184.182H1336.75ZM1371.26 255.091C1366.9 255.091 1363.05 253.989 1359.7 251.784C1356.36 249.557 1353.75 246.42 1351.86 242.375C1349.98 238.307 1349.03 233.5 1349.03 227.955C1349.03 222.455 1349.98 217.682 1351.86 213.636C1353.75 209.591 1356.38 206.466 1359.74 204.261C1363.1 202.057 1366.99 200.955 1371.4 200.955C1374.81 200.955 1377.5 201.523 1379.48 202.659C1381.48 203.773 1383 205.045 1384.05 206.477C1385.11 207.886 1385.94 209.045 1386.53 209.955H1387.22V184.182H1395.26V254H1387.49V245.955H1386.53C1385.94 246.909 1385.1 248.114 1384.01 249.568C1382.92 251 1381.36 252.284 1379.34 253.42C1377.32 254.534 1374.63 255.091 1371.26 255.091ZM1372.35 247.864C1375.58 247.864 1378.31 247.023 1380.53 245.341C1382.76 243.636 1384.45 241.284 1385.61 238.284C1386.77 235.261 1387.35 231.773 1387.35 227.818C1387.35 223.909 1386.78 220.489 1385.65 217.557C1384.51 214.602 1382.83 212.307 1380.6 210.67C1378.38 209.011 1375.63 208.182 1372.35 208.182C1368.94 208.182 1366.1 209.057 1363.83 210.807C1361.58 212.534 1359.89 214.886 1358.75 217.864C1357.64 220.818 1357.08 224.136 1357.08 227.818C1357.08 231.545 1357.65 234.932 1358.78 237.977C1359.94 241 1361.65 243.409 1363.9 245.205C1366.17 246.977 1368.99 247.864 1372.35 247.864ZM1411.11 254V201.636H1419.16V254H1411.11ZM1415.2 192.909C1413.64 192.909 1412.28 192.375 1411.15 191.307C1410.03 190.239 1409.48 188.955 1409.48 187.455C1409.48 185.955 1410.03 184.67 1411.15 183.602C1412.28 182.534 1413.64 182 1415.2 182C1416.77 182 1418.11 182.534 1419.23 183.602C1420.36 184.67 1420.93 185.955 1420.93 187.455C1420.93 188.955 1420.36 190.239 1419.23 191.307C1418.11 192.375 1416.77 192.909 1415.2 192.909ZM1441.94 222.5V254H1433.89V201.636H1441.67V209.818H1442.35C1443.58 207.159 1445.44 205.023 1447.94 203.409C1450.44 201.773 1453.67 200.955 1457.62 200.955C1461.17 200.955 1464.27 201.682 1466.93 203.136C1469.59 204.568 1471.66 206.75 1473.13 209.682C1474.61 212.591 1475.35 216.273 1475.35 220.727V254H1467.3V221.273C1467.3 217.159 1466.24 213.955 1464.1 211.659C1461.96 209.341 1459.03 208.182 1455.3 208.182C1452.74 208.182 1450.44 208.739 1448.42 209.852C1446.42 210.966 1444.84 212.591 1443.68 214.727C1442.52 216.864 1441.94 219.455 1441.94 222.5ZM1511.19 274.727C1507.3 274.727 1503.96 274.227 1501.16 273.227C1498.37 272.25 1496.04 270.955 1494.18 269.341C1492.34 267.75 1490.87 266.045 1489.78 264.227L1496.19 259.727C1496.91 260.682 1497.84 261.773 1498.95 263C1500.06 264.25 1501.59 265.33 1503.52 266.239C1505.47 267.17 1508.03 267.636 1511.19 267.636C1515.41 267.636 1518.9 266.614 1521.65 264.568C1524.4 262.523 1525.78 259.318 1525.78 254.955V244.318H1525.1C1524.51 245.273 1523.66 246.455 1522.57 247.864C1521.51 249.25 1519.96 250.489 1517.94 251.58C1515.94 252.648 1513.23 253.182 1509.82 253.182C1505.6 253.182 1501.8 252.182 1498.44 250.182C1495.1 248.182 1492.45 245.273 1490.49 241.455C1488.56 237.636 1487.6 233 1487.6 227.545C1487.6 222.182 1488.54 217.511 1490.43 213.534C1492.31 209.534 1494.94 206.443 1498.3 204.261C1501.66 202.057 1505.55 200.955 1509.96 200.955C1513.37 200.955 1516.07 201.523 1518.07 202.659C1520.1 203.773 1521.64 205.045 1522.71 206.477C1523.8 207.886 1524.64 209.045 1525.23 209.955H1526.05V201.636H1533.82V255.5C1533.82 260 1532.8 263.659 1530.76 266.477C1528.73 269.318 1526.01 271.398 1522.57 272.716C1519.16 274.057 1515.37 274.727 1511.19 274.727ZM1510.91 245.955C1514.14 245.955 1516.87 245.216 1519.1 243.739C1521.32 242.261 1523.02 240.136 1524.18 237.364C1525.34 234.591 1525.91 231.273 1525.91 227.409C1525.91 223.636 1525.35 220.307 1524.21 217.42C1523.07 214.534 1521.39 212.273 1519.16 210.636C1516.94 209 1514.19 208.182 1510.91 208.182C1507.51 208.182 1504.66 209.045 1502.39 210.773C1500.14 212.5 1498.45 214.818 1497.31 217.727C1496.2 220.636 1495.64 223.864 1495.64 227.409C1495.64 231.045 1496.21 234.261 1497.35 237.057C1498.51 239.83 1500.21 242.011 1502.46 243.602C1504.73 245.17 1507.55 245.955 1510.91 245.955ZM1652.19 254.955C1647.05 254.955 1642.68 253.557 1639.06 250.761C1635.45 247.943 1632.69 243.864 1630.78 238.523C1628.87 233.159 1627.91 226.682 1627.91 219.091C1627.91 211.545 1628.87 205.102 1630.78 199.761C1632.71 194.398 1635.48 190.307 1639.1 187.489C1642.73 184.648 1647.1 183.227 1652.19 183.227C1657.28 183.227 1661.63 184.648 1665.24 187.489C1668.88 190.307 1671.65 194.398 1673.56 199.761C1675.49 205.102 1676.46 211.545 1676.46 219.091C1676.46 226.682 1675.51 233.159 1673.6 238.523C1671.69 243.864 1668.93 247.943 1665.31 250.761C1661.7 253.557 1657.32 254.955 1652.19 254.955ZM1652.19 247.455C1657.28 247.455 1661.23 245 1664.05 240.091C1666.87 235.182 1668.28 228.182 1668.28 219.091C1668.28 213.045 1667.63 207.898 1666.34 203.648C1665.06 199.398 1663.22 196.159 1660.81 193.932C1658.43 191.705 1655.55 190.591 1652.19 190.591C1647.14 190.591 1643.2 193.08 1640.36 198.057C1637.52 203.011 1636.1 210.023 1636.1 219.091C1636.1 225.136 1636.73 230.273 1638.01 234.5C1639.28 238.727 1641.11 241.943 1643.49 244.148C1645.9 246.352 1648.8 247.455 1652.19 247.455ZM1692.98 254.545C1691.3 254.545 1689.85 253.943 1688.65 252.739C1687.44 251.534 1686.84 250.091 1686.84 248.409C1686.84 246.727 1687.44 245.284 1688.65 244.08C1689.85 242.875 1691.3 242.273 1692.98 242.273C1694.66 242.273 1696.1 242.875 1697.31 244.08C1698.51 245.284 1699.11 246.727 1699.11 248.409C1699.11 249.523 1698.83 250.545 1698.26 251.477C1697.72 252.409 1696.98 253.159 1696.05 253.727C1695.14 254.273 1694.11 254.545 1692.98 254.545ZM1734.38 254.955C1729.88 254.955 1725.87 254.182 1722.35 252.636C1718.85 251.091 1716.06 248.943 1713.99 246.193C1711.95 243.42 1710.84 240.205 1710.65 236.545H1719.24C1719.43 238.795 1720.2 240.739 1721.56 242.375C1722.93 243.989 1724.71 245.239 1726.91 246.125C1729.12 247.011 1731.56 247.455 1734.24 247.455C1737.24 247.455 1739.9 246.932 1742.22 245.886C1744.54 244.841 1746.36 243.386 1747.68 241.523C1748.99 239.659 1749.65 237.5 1749.65 235.045C1749.65 232.477 1749.02 230.216 1747.74 228.261C1746.47 226.284 1744.61 224.739 1742.15 223.625C1739.7 222.511 1736.7 221.955 1733.15 221.955H1727.56V214.455H1733.15C1735.93 214.455 1738.36 213.955 1740.45 212.955C1742.56 211.955 1744.21 210.545 1745.39 208.727C1746.6 206.909 1747.2 204.773 1747.2 202.318C1747.2 199.955 1746.68 197.898 1745.63 196.148C1744.59 194.398 1743.11 193.034 1741.2 192.057C1739.31 191.08 1737.09 190.591 1734.52 190.591C1732.11 190.591 1729.84 191.034 1727.7 191.92C1725.59 192.784 1723.86 194.045 1722.52 195.705C1721.18 197.341 1720.45 199.318 1720.34 201.636H1712.15C1712.29 197.977 1713.39 194.773 1715.46 192.023C1717.53 189.25 1720.23 187.091 1723.57 185.545C1726.94 184 1730.63 183.227 1734.65 183.227C1738.97 183.227 1742.68 184.102 1745.77 185.852C1748.86 187.58 1751.23 189.864 1752.89 192.705C1754.55 195.545 1755.38 198.614 1755.38 201.909C1755.38 205.841 1754.35 209.193 1752.28 211.966C1750.23 214.739 1747.45 216.659 1743.93 217.727V218.273C1748.34 219 1751.78 220.875 1754.26 223.898C1756.73 226.898 1757.97 230.614 1757.97 235.045C1757.97 238.841 1756.94 242.25 1754.87 245.273C1752.82 248.273 1750.03 250.636 1746.48 252.364C1742.94 254.091 1738.9 254.955 1734.38 254.955ZM1796.46 184.182V254H1788.01V193.045H1787.6L1770.55 204.364V195.773L1788.01 184.182H1796.46ZM1852.13 240.909V237.227C1852.13 234.682 1852.65 232.352 1853.7 230.239C1854.77 228.102 1856.31 226.398 1858.34 225.125C1860.38 223.83 1862.86 223.182 1865.77 223.182C1868.72 223.182 1871.2 223.83 1873.2 225.125C1875.2 226.398 1876.71 228.102 1877.73 230.239C1878.76 232.352 1879.27 234.682 1879.27 237.227V240.909C1879.27 243.455 1878.74 245.795 1877.7 247.932C1876.68 250.045 1875.15 251.75 1873.13 253.045C1871.13 254.318 1868.68 254.955 1865.77 254.955C1862.81 254.955 1860.32 254.318 1858.3 253.045C1856.28 251.75 1854.74 250.045 1853.7 247.932C1852.65 245.795 1852.13 243.455 1852.13 240.909ZM1859.09 237.227V240.909C1859.09 243.023 1859.59 244.92 1860.59 246.602C1861.59 248.261 1863.31 249.091 1865.77 249.091C1868.15 249.091 1869.84 248.261 1870.81 246.602C1871.81 244.92 1872.31 243.023 1872.31 240.909V237.227C1872.31 235.114 1871.84 233.227 1870.88 231.568C1869.93 229.886 1868.22 229.045 1865.77 229.045C1863.38 229.045 1861.66 229.886 1860.62 231.568C1859.6 233.227 1859.09 235.114 1859.09 237.227ZM1817.36 200.955V197.273C1817.36 194.727 1817.88 192.398 1818.93 190.284C1819.99 188.148 1821.54 186.443 1823.56 185.17C1825.61 183.875 1828.09 183.227 1830.99 183.227C1833.95 183.227 1836.43 183.875 1838.43 185.17C1840.43 186.443 1841.94 188.148 1842.96 190.284C1843.98 192.398 1844.49 194.727 1844.49 197.273V200.955C1844.49 203.5 1843.97 205.841 1842.93 207.977C1841.9 210.091 1840.38 211.795 1838.36 213.091C1836.36 214.364 1833.9 215 1830.99 215C1828.04 215 1825.55 214.364 1823.53 213.091C1821.51 211.795 1819.97 210.091 1818.93 207.977C1817.88 205.841 1817.36 203.5 1817.36 200.955ZM1824.31 197.273V200.955C1824.31 203.068 1824.81 204.966 1825.81 206.648C1826.81 208.307 1828.54 209.136 1830.99 209.136C1833.38 209.136 1835.06 208.307 1836.04 206.648C1837.04 204.966 1837.54 203.068 1837.54 200.955V197.273C1837.54 195.159 1837.06 193.273 1836.11 191.614C1835.15 189.932 1833.45 189.091 1830.99 189.091C1828.61 189.091 1826.89 189.932 1825.85 191.614C1824.82 193.273 1824.31 195.159 1824.31 197.273ZM1819.95 254L1867.95 184.182H1875.72L1827.72 254H1819.95ZM1214.14 370L1195.05 300.182H1203.64L1218.23 357.045H1218.91L1233.77 300.182H1243.32L1258.18 357.045H1258.86L1273.45 300.182H1282.05L1262.95 370H1254.23L1238.82 314.364H1238.27L1222.86 370H1214.14ZM1302.02 371.227C1298.7 371.227 1295.69 370.602 1292.99 369.352C1290.28 368.08 1288.14 366.25 1286.55 363.864C1284.95 361.455 1284.16 358.545 1284.16 355.136C1284.16 352.136 1284.75 349.705 1285.93 347.841C1287.11 345.955 1288.69 344.477 1290.67 343.409C1292.65 342.341 1294.83 341.545 1297.22 341.023C1299.63 340.477 1302.05 340.045 1304.48 339.727C1307.66 339.318 1310.24 339.011 1312.22 338.807C1314.22 338.58 1315.67 338.205 1316.58 337.682C1317.51 337.159 1317.98 336.25 1317.98 334.955V334.682C1317.98 331.318 1317.06 328.705 1315.22 326.841C1313.4 324.977 1310.64 324.045 1306.93 324.045C1303.09 324.045 1300.08 324.886 1297.9 326.568C1295.72 328.25 1294.18 330.045 1293.3 331.955L1285.66 329.227C1287.02 326.045 1288.84 323.568 1291.11 321.795C1293.41 320 1295.91 318.75 1298.61 318.045C1301.34 317.318 1304.02 316.955 1306.66 316.955C1308.34 316.955 1310.27 317.159 1312.45 317.568C1314.66 317.955 1316.78 318.761 1318.83 319.989C1320.9 321.216 1322.61 323.068 1323.98 325.545C1325.34 328.023 1326.02 331.341 1326.02 335.5V370H1317.98V362.909H1317.57C1317.02 364.045 1316.11 365.261 1314.84 366.557C1313.57 367.852 1311.88 368.955 1309.76 369.864C1307.65 370.773 1305.07 371.227 1302.02 371.227ZM1303.25 364C1306.43 364 1309.11 363.375 1311.3 362.125C1313.5 360.875 1315.16 359.261 1316.27 357.284C1317.41 355.307 1317.98 353.227 1317.98 351.045V343.682C1317.64 344.091 1316.89 344.466 1315.73 344.807C1314.59 345.125 1313.27 345.409 1311.77 345.659C1310.3 345.886 1308.85 346.091 1307.44 346.273C1306.06 346.432 1304.93 346.568 1304.07 346.682C1301.98 346.955 1300.02 347.398 1298.2 348.011C1296.41 348.602 1294.95 349.5 1293.84 350.705C1292.75 351.886 1292.2 353.5 1292.2 355.545C1292.2 358.341 1293.24 360.455 1295.31 361.886C1297.4 363.295 1300.05 364 1303.25 364ZM1348.75 300.182V370H1340.71V300.182H1348.75ZM1371.53 300.182V370H1363.49V300.182H1371.53ZM1408.22 371.091C1403.18 371.091 1398.83 369.977 1395.17 367.75C1391.53 365.5 1388.72 362.364 1386.75 358.341C1384.79 354.295 1383.82 349.591 1383.82 344.227C1383.82 338.864 1384.79 334.136 1386.75 330.045C1388.72 325.932 1391.47 322.727 1395 320.432C1398.54 318.114 1402.68 316.955 1407.41 316.955C1410.13 316.955 1412.83 317.409 1415.49 318.318C1418.14 319.227 1420.57 320.705 1422.75 322.75C1424.93 324.773 1426.67 327.455 1427.96 330.795C1429.26 334.136 1429.91 338.25 1429.91 343.136V346.545H1389.54V339.591H1421.72C1421.72 336.636 1421.13 334 1419.95 331.682C1418.79 329.364 1417.13 327.534 1414.97 326.193C1412.84 324.852 1410.32 324.182 1407.41 324.182C1404.2 324.182 1401.43 324.977 1399.09 326.568C1396.77 328.136 1394.99 330.182 1393.74 332.705C1392.49 335.227 1391.86 337.932 1391.86 340.818V345.455C1391.86 349.409 1392.54 352.761 1393.91 355.511C1395.29 358.239 1397.21 360.318 1399.67 361.75C1402.12 363.159 1404.97 363.864 1408.22 363.864C1410.34 363.864 1412.25 363.568 1413.95 362.977C1415.68 362.364 1417.17 361.455 1418.42 360.25C1419.67 359.023 1420.63 357.5 1421.32 355.682L1429.09 357.864C1428.27 360.5 1426.89 362.818 1424.96 364.818C1423.03 366.795 1420.64 368.341 1417.8 369.455C1414.96 370.545 1411.77 371.091 1408.22 371.091ZM1464.92 317.636V324.455H1437.78V317.636H1464.92ZM1445.69 305.091H1453.74V355C1453.74 357.273 1454.07 358.977 1454.72 360.114C1455.41 361.227 1456.27 361.977 1457.32 362.364C1458.38 362.727 1459.51 362.909 1460.69 362.909C1461.58 362.909 1462.3 362.864 1462.87 362.773C1463.44 362.659 1463.89 362.568 1464.24 362.5L1465.87 369.727C1465.33 369.932 1464.57 370.136 1463.59 370.341C1462.61 370.568 1461.37 370.682 1459.87 370.682C1457.6 370.682 1455.37 370.193 1453.19 369.216C1451.03 368.239 1449.24 366.75 1447.8 364.75C1446.39 362.75 1445.69 360.227 1445.69 357.182V305.091ZM1482.88 370.545C1481.2 370.545 1479.76 369.943 1478.55 368.739C1477.35 367.534 1476.75 366.091 1476.75 364.409C1476.75 362.727 1477.35 361.284 1478.55 360.08C1479.76 358.875 1481.2 358.273 1482.88 358.273C1484.57 358.273 1486.01 358.875 1487.21 360.08C1488.42 361.284 1489.02 362.727 1489.02 364.409C1489.02 365.523 1488.74 366.545 1488.17 367.477C1487.62 368.409 1486.88 369.159 1485.95 369.727C1485.04 370.273 1484.02 370.545 1482.88 370.545ZM1482.88 331.682C1481.2 331.682 1479.76 331.08 1478.55 329.875C1477.35 328.67 1476.75 327.227 1476.75 325.545C1476.75 323.864 1477.35 322.42 1478.55 321.216C1479.76 320.011 1481.2 319.409 1482.88 319.409C1484.57 319.409 1486.01 320.011 1487.21 321.216C1488.42 322.42 1489.02 323.864 1489.02 325.545C1489.02 326.659 1488.74 327.682 1488.17 328.614C1487.62 329.545 1486.88 330.295 1485.95 330.864C1485.04 331.409 1484.02 331.682 1482.88 331.682ZM1642.41 370H1633.55L1659.18 300.182H1667.91L1693.55 370H1684.68L1663.82 311.227H1663.28L1642.41 370ZM1645.68 342.727H1681.41V350.227H1645.68V342.727ZM1704.42 370V300.182H1746.56V307.682H1712.88V331.273H1744.38V338.773H1712.88V362.5H1747.11V370H1704.42ZM1760.57 370V363.864L1783.62 338.636C1786.32 335.682 1788.55 333.114 1790.3 330.932C1792.05 328.727 1793.34 326.659 1794.18 324.727C1795.05 322.773 1795.48 320.727 1795.48 318.591C1795.48 316.136 1794.89 314.011 1793.71 312.216C1792.55 310.42 1790.96 309.034 1788.93 308.057C1786.91 307.08 1784.64 306.591 1782.12 306.591C1779.43 306.591 1777.09 307.148 1775.09 308.261C1773.12 309.352 1771.58 310.886 1770.49 312.864C1769.42 314.841 1768.89 317.159 1768.89 319.818H1760.84C1760.84 315.727 1761.79 312.136 1763.67 309.045C1765.56 305.955 1768.13 303.545 1771.38 301.818C1774.65 300.091 1778.32 299.227 1782.39 299.227C1786.48 299.227 1790.11 300.091 1793.26 301.818C1796.42 303.545 1798.9 305.875 1800.7 308.807C1802.49 311.739 1803.39 315 1803.39 318.591C1803.39 321.159 1802.92 323.67 1801.99 326.125C1801.08 328.557 1799.49 331.273 1797.22 334.273C1794.97 337.25 1791.84 340.886 1787.84 345.182L1772.16 361.955V362.5H1804.62V370H1760.57ZM1842.29 370.955C1837.79 370.955 1833.78 370.182 1830.25 368.636C1826.75 367.091 1823.97 364.943 1821.9 362.193C1819.86 359.42 1818.74 356.205 1818.56 352.545H1827.15C1827.33 354.795 1828.11 356.739 1829.47 358.375C1830.83 359.989 1832.62 361.239 1834.82 362.125C1837.03 363.011 1839.47 363.455 1842.15 363.455C1845.15 363.455 1847.81 362.932 1850.13 361.886C1852.45 360.841 1854.26 359.386 1855.58 357.523C1856.9 355.659 1857.56 353.5 1857.56 351.045C1857.56 348.477 1856.92 346.216 1855.65 344.261C1854.38 342.284 1852.51 340.739 1850.06 339.625C1847.61 338.511 1844.61 337.955 1841.06 337.955H1835.47V330.455H1841.06C1843.83 330.455 1846.26 329.955 1848.36 328.955C1850.47 327.955 1852.12 326.545 1853.3 324.727C1854.5 322.909 1855.11 320.773 1855.11 318.318C1855.11 315.955 1854.58 313.898 1853.54 312.148C1852.49 310.398 1851.01 309.034 1849.11 308.057C1847.22 307.08 1844.99 306.591 1842.42 306.591C1840.01 306.591 1837.74 307.034 1835.61 307.92C1833.49 308.784 1831.76 310.045 1830.42 311.705C1829.08 313.341 1828.36 315.318 1828.24 317.636H1820.06C1820.2 313.977 1821.3 310.773 1823.37 308.023C1825.43 305.25 1828.14 303.091 1831.48 301.545C1834.84 300 1838.54 299.227 1842.56 299.227C1846.88 299.227 1850.58 300.102 1853.67 301.852C1856.76 303.58 1859.14 305.864 1860.8 308.705C1862.46 311.545 1863.29 314.614 1863.29 317.909C1863.29 321.841 1862.25 325.193 1860.18 327.966C1858.14 330.739 1855.36 332.659 1851.83 333.727V334.273C1856.24 335 1859.68 336.875 1862.16 339.898C1864.64 342.898 1865.88 346.614 1865.88 351.045C1865.88 354.841 1864.84 358.25 1862.78 361.273C1860.73 364.273 1857.93 366.636 1854.39 368.364C1850.84 370.091 1846.81 370.955 1842.29 370.955ZM1878.18 355.682V348.727L1908.87 300.182H1913.91V310.955H1910.5L1887.32 347.636V348.182H1928.64V355.682H1878.18ZM1911.05 370V353.568V350.33V300.182H1919.09V370H1911.05ZM1944.13 370.545C1942.45 370.545 1941.01 369.943 1939.8 368.739C1938.6 367.534 1938 366.091 1938 364.409C1938 362.727 1938.6 361.284 1939.8 360.08C1941.01 358.875 1942.45 358.273 1944.13 358.273C1945.82 358.273 1947.26 358.875 1948.46 360.08C1949.67 361.284 1950.27 362.727 1950.27 364.409C1950.27 365.523 1949.99 366.545 1949.42 367.477C1948.87 368.409 1948.13 369.159 1947.2 369.727C1946.29 370.273 1945.27 370.545 1944.13 370.545ZM1970.57 370.545C1968.89 370.545 1967.45 369.943 1966.24 368.739C1965.04 367.534 1964.43 366.091 1964.43 364.409C1964.43 362.727 1965.04 361.284 1966.24 360.08C1967.45 358.875 1968.89 358.273 1970.57 358.273C1972.25 358.273 1973.7 358.875 1974.9 360.08C1976.11 361.284 1976.71 362.727 1976.71 364.409C1976.71 365.523 1976.42 366.545 1975.86 367.477C1975.31 368.409 1974.57 369.159 1973.64 369.727C1972.73 370.273 1971.71 370.545 1970.57 370.545ZM1997.01 370.545C1995.33 370.545 1993.88 369.943 1992.68 368.739C1991.47 367.534 1990.87 366.091 1990.87 364.409C1990.87 362.727 1991.47 361.284 1992.68 360.08C1993.88 358.875 1995.33 358.273 1997.01 358.273C1998.69 358.273 2000.13 358.875 2001.34 360.08C2002.54 361.284 2003.14 362.727 2003.14 364.409C2003.14 365.523 2002.86 366.545 2002.29 367.477C2001.75 368.409 2001.01 369.159 2000.08 369.727C1999.17 370.273 1998.14 370.545 1997.01 370.545ZM2023.45 370.545C2021.76 370.545 2020.32 369.943 2019.12 368.739C2017.91 367.534 2017.31 366.091 2017.31 364.409C2017.31 362.727 2017.91 361.284 2019.12 360.08C2020.32 358.875 2021.76 358.273 2023.45 358.273C2025.13 358.273 2026.57 358.875 2027.78 360.08C2028.98 361.284 2029.58 362.727 2029.58 364.409C2029.58 365.523 2029.3 366.545 2028.73 367.477C2028.18 368.409 2027.45 369.159 2026.51 369.727C2025.61 370.273 2024.58 370.545 2023.45 370.545ZM2045.11 370V300.182H2069.52C2074.38 300.182 2078.39 301.023 2081.55 302.705C2084.71 304.364 2087.07 306.602 2088.61 309.42C2090.16 312.216 2090.93 315.318 2090.93 318.727C2090.93 321.727 2090.39 324.205 2089.33 326.159C2088.28 328.114 2086.89 329.659 2085.17 330.795C2083.46 331.932 2081.61 332.773 2079.61 333.318V334C2081.75 334.136 2083.89 334.886 2086.05 336.25C2088.21 337.614 2090.02 339.568 2091.47 342.114C2092.93 344.659 2093.66 347.773 2093.66 351.455C2093.66 354.955 2092.86 358.102 2091.27 360.898C2089.68 363.693 2087.17 365.909 2083.74 367.545C2080.3 369.182 2075.84 370 2070.34 370H2045.11ZM2053.57 362.5H2070.34C2075.86 362.5 2079.78 361.432 2082.1 359.295C2084.44 357.136 2085.61 354.523 2085.61 351.455C2085.61 349.091 2085.01 346.909 2083.8 344.909C2082.6 342.886 2080.88 341.273 2078.66 340.068C2076.43 338.841 2073.79 338.227 2070.75 338.227H2053.57V362.5ZM2053.57 330.864H2069.25C2071.79 330.864 2074.09 330.364 2076.13 329.364C2078.2 328.364 2079.84 326.955 2081.04 325.136C2082.27 323.318 2082.88 321.182 2082.88 318.727C2082.88 315.659 2081.82 313.057 2079.68 310.92C2077.54 308.761 2074.16 307.682 2069.52 307.682H2053.57V330.864ZM2106.32 370V363.864L2129.37 338.636C2132.07 335.682 2134.3 333.114 2136.05 330.932C2137.8 328.727 2139.09 326.659 2139.93 324.727C2140.8 322.773 2141.23 320.727 2141.23 318.591C2141.23 316.136 2140.64 314.011 2139.46 312.216C2138.3 310.42 2136.71 309.034 2134.68 308.057C2132.66 307.08 2130.39 306.591 2127.87 306.591C2125.18 306.591 2122.84 307.148 2120.84 308.261C2118.87 309.352 2117.33 310.886 2116.24 312.864C2115.17 314.841 2114.64 317.159 2114.64 319.818H2106.59C2106.59 315.727 2107.54 312.136 2109.42 309.045C2111.31 305.955 2113.88 303.545 2117.13 301.818C2120.4 300.091 2124.07 299.227 2128.14 299.227C2132.23 299.227 2135.86 300.091 2139.01 301.818C2142.17 303.545 2144.65 305.875 2146.45 308.807C2148.24 311.739 2149.14 315 2149.14 318.591C2149.14 321.159 2148.67 323.67 2147.74 326.125C2146.83 328.557 2145.24 331.273 2142.97 334.273C2140.72 337.25 2137.59 340.886 2133.59 345.182L2117.91 361.955V362.5H2150.37V370H2106.32ZM2188.99 300.182V370H2180.54V309.045H2180.13L2163.08 320.364V311.773L2180.54 300.182H2188.99ZM2210.3 370V300.182H2252.43V307.682H2218.75V331.273H2250.25V338.773H2218.75V362.5H2252.98V370H2210.3Z" fill="white"/>
</svg>
