<svg width="2337" height="584" viewBox="0 0 2337 584" fill="none" xmlns="http://www.w3.org/2000/svg">
<rect x="5" y="5" width="2327" height="574" rx="145" fill="#3D2468" stroke="#1C074A" stroke-width="10"/>
<circle cx="155.5" cy="291.5" r="37.5" fill="#784C28"/>
<path d="M303.857 320H287.379L312.486 247.273H332.301L357.372 320H340.895L322.678 263.892H322.109L303.857 320ZM302.827 291.413H341.747V303.416H302.827V291.413ZM387.947 321.065C382.36 321.065 377.554 319.882 373.53 317.514C369.529 315.123 366.451 311.809 364.297 307.571C362.166 303.333 361.101 298.456 361.101 292.94C361.101 287.353 362.178 282.453 364.332 278.239C366.51 274.001 369.6 270.698 373.601 268.331C377.602 265.94 382.36 264.744 387.876 264.744C392.635 264.744 396.802 265.608 400.376 267.337C403.951 269.065 406.78 271.491 408.864 274.616C410.947 277.741 412.095 281.411 412.308 285.625H398.033C397.63 282.902 396.565 280.713 394.837 279.055C393.132 277.375 390.895 276.534 388.125 276.534C385.781 276.534 383.733 277.173 381.982 278.452C380.253 279.706 378.904 281.541 377.933 283.956C376.963 286.371 376.477 289.295 376.477 292.727C376.477 296.207 376.951 299.167 377.898 301.605C378.868 304.044 380.23 305.902 381.982 307.18C383.733 308.459 385.781 309.098 388.125 309.098C389.853 309.098 391.404 308.743 392.777 308.033C394.174 307.322 395.322 306.293 396.222 304.943C397.145 303.57 397.749 301.925 398.033 300.007H412.308C412.071 304.174 410.935 307.843 408.899 311.016C406.887 314.164 404.105 316.626 400.554 318.402C397.003 320.178 392.801 321.065 387.947 321.065ZM446.639 321.065C441.052 321.065 436.246 319.882 432.221 317.514C428.22 315.123 425.143 311.809 422.988 307.571C420.858 303.333 419.792 298.456 419.792 292.94C419.792 287.353 420.869 282.453 423.024 278.239C425.202 274.001 428.291 270.698 432.292 268.331C436.293 265.94 441.052 264.744 446.568 264.744C451.326 264.744 455.493 265.608 459.068 267.337C462.643 269.065 465.472 271.491 467.555 274.616C469.638 277.741 470.787 281.411 471 285.625H456.724C456.322 282.902 455.256 280.713 453.528 279.055C451.824 277.375 449.586 276.534 446.816 276.534C444.473 276.534 442.425 277.173 440.673 278.452C438.945 279.706 437.595 281.541 436.625 283.956C435.654 286.371 435.169 289.295 435.169 292.727C435.169 296.207 435.642 299.167 436.589 301.605C437.56 304.044 438.921 305.902 440.673 307.18C442.425 308.459 444.473 309.098 446.816 309.098C448.545 309.098 450.095 308.743 451.468 308.033C452.865 307.322 454.013 306.293 454.913 304.943C455.836 303.57 456.44 301.925 456.724 300.007H471C470.763 304.174 469.627 307.843 467.591 311.016C465.578 314.164 462.797 316.626 459.245 318.402C455.694 320.178 451.492 321.065 446.639 321.065ZM505.543 321.065C499.933 321.065 495.103 319.929 491.055 317.656C487.03 315.36 483.929 312.116 481.751 307.926C479.573 303.712 478.484 298.729 478.484 292.976C478.484 287.365 479.573 282.441 481.751 278.203C483.929 273.965 486.995 270.663 490.948 268.295C494.925 265.928 499.589 264.744 504.94 264.744C508.538 264.744 511.888 265.324 514.989 266.484C518.114 267.621 520.837 269.337 523.157 271.634C525.501 273.93 527.324 276.818 528.626 280.298C529.928 283.755 530.579 287.803 530.579 292.443V296.598H484.521V287.223H516.339C516.339 285.045 515.865 283.116 514.918 281.435C513.971 279.754 512.657 278.44 510.977 277.493C509.319 276.522 507.39 276.037 505.188 276.037C502.892 276.037 500.856 276.57 499.08 277.635C497.328 278.677 495.955 280.085 494.961 281.861C493.967 283.613 493.458 285.566 493.434 287.72V296.634C493.434 299.332 493.931 301.664 494.925 303.629C495.943 305.594 497.376 307.109 499.222 308.175C501.069 309.24 503.259 309.773 505.792 309.773C507.473 309.773 509.012 309.536 510.408 309.062C511.805 308.589 513.001 307.879 513.995 306.932C514.989 305.985 515.747 304.825 516.268 303.452L530.259 304.375C529.549 307.737 528.093 310.672 525.891 313.182C523.713 315.668 520.896 317.609 517.44 319.006C514.007 320.379 510.041 321.065 505.543 321.065ZM585.835 281.009L571.985 281.861C571.748 280.677 571.239 279.612 570.458 278.665C569.677 277.694 568.647 276.925 567.369 276.357C566.114 275.765 564.611 275.469 562.859 275.469C560.515 275.469 558.538 275.966 556.928 276.96C555.318 277.931 554.513 279.233 554.513 280.866C554.513 282.169 555.034 283.269 556.076 284.169C557.118 285.069 558.905 285.791 561.438 286.335L571.31 288.324C576.613 289.413 580.567 291.165 583.171 293.58C585.775 295.994 587.077 299.167 587.077 303.097C587.077 306.671 586.024 309.808 583.917 312.507C581.834 315.206 578.969 317.313 575.323 318.828C571.701 320.32 567.522 321.065 562.788 321.065C555.567 321.065 549.814 319.562 545.529 316.555C541.268 313.525 538.77 309.406 538.036 304.197L552.915 303.416C553.365 305.618 554.454 307.299 556.183 308.459C557.911 309.595 560.124 310.163 562.823 310.163C565.475 310.163 567.605 309.654 569.215 308.636C570.849 307.595 571.677 306.257 571.701 304.624C571.677 303.25 571.097 302.126 569.961 301.25C568.825 300.35 567.073 299.664 564.705 299.19L555.259 297.308C549.933 296.243 545.967 294.396 543.363 291.768C540.782 289.141 539.492 285.791 539.492 281.719C539.492 278.215 540.439 275.196 542.333 272.663C544.251 270.13 546.938 268.177 550.394 266.804C553.874 265.431 557.946 264.744 562.61 264.744C569.499 264.744 574.921 266.2 578.874 269.112C582.852 272.024 585.172 275.99 585.835 281.009ZM641.987 281.009L628.137 281.861C627.901 280.677 627.392 279.612 626.61 278.665C625.829 277.694 624.799 276.925 623.521 276.357C622.266 275.765 620.763 275.469 619.011 275.469C616.667 275.469 614.69 275.966 613.081 276.96C611.471 277.931 610.666 279.233 610.666 280.866C610.666 282.169 611.187 283.269 612.228 284.169C613.27 285.069 615.057 285.791 617.591 286.335L627.463 288.324C632.766 289.413 636.719 291.165 639.324 293.58C641.928 295.994 643.23 299.167 643.23 303.097C643.23 306.671 642.176 309.808 640.069 312.507C637.986 315.206 635.121 317.313 631.475 318.828C627.853 320.32 623.675 321.065 618.94 321.065C611.719 321.065 605.967 319.562 601.681 316.555C597.42 313.525 594.922 309.406 594.189 304.197L609.068 303.416C609.518 305.618 610.607 307.299 612.335 308.459C614.063 309.595 616.277 310.163 618.975 310.163C621.627 310.163 623.758 309.654 625.368 308.636C627.001 307.595 627.83 306.257 627.853 304.624C627.83 303.25 627.25 302.126 626.113 301.25C624.977 300.35 623.225 299.664 620.858 299.19L611.412 297.308C606.085 296.243 602.119 294.396 599.515 291.768C596.935 289.141 595.645 285.791 595.645 281.719C595.645 278.215 596.592 275.196 598.485 272.663C600.403 270.13 603.09 268.177 606.547 266.804C610.027 265.431 614.099 264.744 618.762 264.744C625.652 264.744 631.073 266.2 635.027 269.112C639.004 272.024 641.324 275.99 641.987 281.009ZM701.966 320H676.184V247.273H702.179C709.494 247.273 715.791 248.729 721.071 251.641C726.35 254.529 730.41 258.684 733.251 264.105C736.116 269.527 737.548 276.013 737.548 283.565C737.548 291.141 736.116 297.652 733.251 303.097C730.41 308.542 726.326 312.72 721 315.632C715.697 318.544 709.352 320 701.966 320ZM691.561 306.825H701.326C705.872 306.825 709.695 306.02 712.797 304.411C715.922 302.777 718.265 300.256 719.828 296.847C721.414 293.414 722.207 288.987 722.207 283.565C722.207 278.191 721.414 273.8 719.828 270.391C718.265 266.982 715.933 264.472 712.832 262.862C709.731 261.252 705.907 260.447 701.362 260.447H691.561V306.825ZM773.512 321.065C767.901 321.065 763.072 319.929 759.023 317.656C754.999 315.36 751.897 312.116 749.719 307.926C747.541 303.712 746.452 298.729 746.452 292.976C746.452 287.365 747.541 282.441 749.719 278.203C751.897 273.965 754.963 270.663 758.917 268.295C762.894 265.928 767.558 264.744 772.908 264.744C776.507 264.744 779.857 265.324 782.958 266.484C786.083 267.621 788.806 269.337 791.126 271.634C793.469 273.93 795.292 276.818 796.594 280.298C797.897 283.755 798.548 287.803 798.548 292.443V296.598H752.489V287.223H784.308C784.308 285.045 783.834 283.116 782.887 281.435C781.94 279.754 780.626 278.44 778.945 277.493C777.288 276.522 775.359 276.037 773.157 276.037C770.861 276.037 768.825 276.57 767.049 277.635C765.297 278.677 763.924 280.085 762.93 281.861C761.935 283.613 761.426 285.566 761.403 287.72V296.634C761.403 299.332 761.9 301.664 762.894 303.629C763.912 305.594 765.344 307.109 767.191 308.175C769.038 309.24 771.228 309.773 773.761 309.773C775.442 309.773 776.98 309.536 778.377 309.062C779.774 308.589 780.969 307.879 781.964 306.932C782.958 305.985 783.716 304.825 784.237 303.452L798.228 304.375C797.518 307.737 796.062 310.672 793.86 313.182C791.682 315.668 788.865 317.609 785.408 319.006C781.976 320.379 778.01 321.065 773.512 321.065ZM823.548 288.466V320H808.42V265.455H822.837V275.078H823.477C824.684 271.906 826.708 269.396 829.549 267.55C832.39 265.679 835.835 264.744 839.883 264.744C843.671 264.744 846.973 265.573 849.79 267.23C852.608 268.887 854.798 271.255 856.36 274.332C857.923 277.386 858.704 281.032 858.704 285.27V320H843.576V287.969C843.6 284.631 842.747 282.027 841.019 280.156C839.291 278.262 836.912 277.315 833.881 277.315C831.845 277.315 830.046 277.753 828.484 278.629C826.945 279.505 825.737 280.784 824.862 282.464C824.009 284.122 823.571 286.122 823.548 288.466ZM870.627 320V265.455H885.755V320H870.627ZM878.226 258.423C875.977 258.423 874.048 257.678 872.438 256.186C870.852 254.671 870.059 252.86 870.059 250.753C870.059 248.67 870.852 246.882 872.438 245.391C874.048 243.875 875.977 243.118 878.226 243.118C880.475 243.118 882.393 243.875 883.979 245.391C885.589 246.882 886.394 248.67 886.394 250.753C886.394 252.86 885.589 254.671 883.979 256.186C882.393 257.678 880.475 258.423 878.226 258.423ZM922.731 321.065C917.12 321.065 912.29 319.929 908.242 317.656C904.218 315.36 901.116 312.116 898.938 307.926C896.76 303.712 895.671 298.729 895.671 292.976C895.671 287.365 896.76 282.441 898.938 278.203C901.116 273.965 904.182 270.663 908.136 268.295C912.113 265.928 916.777 264.744 922.127 264.744C925.726 264.744 929.076 265.324 932.177 266.484C935.302 267.621 938.024 269.337 940.344 271.634C942.688 273.93 944.511 276.818 945.813 280.298C947.115 283.755 947.766 287.803 947.766 292.443V296.598H901.708V287.223H933.526C933.526 285.045 933.053 283.116 932.106 281.435C931.159 279.754 929.845 278.44 928.164 277.493C926.507 276.522 924.577 276.037 922.376 276.037C920.079 276.037 918.043 276.57 916.268 277.635C914.516 278.677 913.143 280.085 912.148 281.861C911.154 283.613 910.645 285.566 910.621 287.72V296.634C910.621 299.332 911.119 301.664 912.113 303.629C913.131 305.594 914.563 307.109 916.41 308.175C918.256 309.24 920.446 309.773 922.979 309.773C924.66 309.773 926.199 309.536 927.596 309.062C928.993 308.589 930.188 307.879 931.183 306.932C932.177 305.985 932.934 304.825 933.455 303.452L947.447 304.375C946.737 307.737 945.281 310.672 943.079 313.182C940.901 315.668 938.084 317.609 934.627 319.006C931.194 320.379 927.229 321.065 922.731 321.065ZM977.738 320.888C973.595 320.888 969.843 319.822 966.481 317.692C963.143 315.537 960.491 312.377 958.526 308.21C956.585 304.02 955.614 298.883 955.614 292.798C955.614 286.548 956.621 281.352 958.633 277.209C960.645 273.042 963.32 269.929 966.658 267.869C970.02 265.786 973.701 264.744 977.702 264.744C980.756 264.744 983.301 265.265 985.337 266.307C987.397 267.325 989.054 268.603 990.309 270.142C991.587 271.657 992.558 273.149 993.221 274.616H993.683V247.273H1008.77V320H993.86V311.264H993.221C992.511 312.779 991.504 314.283 990.202 315.774C988.924 317.242 987.255 318.461 985.195 319.432C983.159 320.402 980.674 320.888 977.738 320.888ZM982.532 308.849C984.97 308.849 987.03 308.187 988.711 306.861C990.415 305.511 991.718 303.629 992.617 301.214C993.54 298.8 994.002 295.971 994.002 292.727C994.002 289.484 993.552 286.667 992.653 284.276C991.753 281.884 990.451 280.038 988.746 278.736C987.042 277.434 984.97 276.783 982.532 276.783C980.046 276.783 977.951 277.457 976.246 278.807C974.542 280.156 973.252 282.027 972.376 284.418C971.5 286.809 971.062 289.579 971.062 292.727C971.062 295.9 971.5 298.705 972.376 301.143C973.275 303.558 974.566 305.452 976.246 306.825C977.951 308.175 980.046 308.849 982.532 308.849Z" fill="white"/>
<path d="M1201.45 254V184.182H1209.91V215.273H1247.14V184.182H1255.59V254H1247.14V222.773H1209.91V254H1201.45ZM1292.7 255.091C1287.97 255.091 1283.82 253.966 1280.26 251.716C1276.71 249.466 1273.94 246.318 1271.94 242.273C1269.96 238.227 1268.97 233.5 1268.97 228.091C1268.97 222.636 1269.96 217.875 1271.94 213.807C1273.94 209.739 1276.71 206.58 1280.26 204.33C1283.82 202.08 1287.97 200.955 1292.7 200.955C1297.43 200.955 1301.56 202.08 1305.11 204.33C1308.68 206.58 1311.45 209.739 1313.43 213.807C1315.43 217.875 1316.43 222.636 1316.43 228.091C1316.43 233.5 1315.43 238.227 1313.43 242.273C1311.45 246.318 1308.68 249.466 1305.11 251.716C1301.56 253.966 1297.43 255.091 1292.7 255.091ZM1292.7 247.864C1296.29 247.864 1299.24 246.943 1301.56 245.102C1303.88 243.261 1305.6 240.841 1306.71 237.841C1307.82 234.841 1308.38 231.591 1308.38 228.091C1308.38 224.591 1307.82 221.33 1306.71 218.307C1305.6 215.284 1303.88 212.841 1301.56 210.977C1299.24 209.114 1296.29 208.182 1292.7 208.182C1289.11 208.182 1286.15 209.114 1283.84 210.977C1281.52 212.841 1279.8 215.284 1278.69 218.307C1277.57 221.33 1277.02 224.591 1277.02 228.091C1277.02 231.591 1277.57 234.841 1278.69 237.841C1279.8 240.841 1281.52 243.261 1283.84 245.102C1286.15 246.943 1289.11 247.864 1292.7 247.864ZM1336.75 184.182V254H1328.71V184.182H1336.75ZM1371.26 255.091C1366.9 255.091 1363.05 253.989 1359.7 251.784C1356.36 249.557 1353.75 246.42 1351.86 242.375C1349.98 238.307 1349.03 233.5 1349.03 227.955C1349.03 222.455 1349.98 217.682 1351.86 213.636C1353.75 209.591 1356.38 206.466 1359.74 204.261C1363.1 202.057 1366.99 200.955 1371.4 200.955C1374.81 200.955 1377.5 201.523 1379.48 202.659C1381.48 203.773 1383 205.045 1384.05 206.477C1385.11 207.886 1385.94 209.045 1386.53 209.955H1387.22V184.182H1395.26V254H1387.49V245.955H1386.53C1385.94 246.909 1385.1 248.114 1384.01 249.568C1382.92 251 1381.36 252.284 1379.34 253.42C1377.32 254.534 1374.63 255.091 1371.26 255.091ZM1372.35 247.864C1375.58 247.864 1378.31 247.023 1380.53 245.341C1382.76 243.636 1384.45 241.284 1385.61 238.284C1386.77 235.261 1387.35 231.773 1387.35 227.818C1387.35 223.909 1386.78 220.489 1385.65 217.557C1384.51 214.602 1382.83 212.307 1380.6 210.67C1378.38 209.011 1375.63 208.182 1372.35 208.182C1368.94 208.182 1366.1 209.057 1363.83 210.807C1361.58 212.534 1359.89 214.886 1358.75 217.864C1357.64 220.818 1357.08 224.136 1357.08 227.818C1357.08 231.545 1357.65 234.932 1358.78 237.977C1359.94 241 1361.65 243.409 1363.9 245.205C1366.17 246.977 1368.99 247.864 1372.35 247.864ZM1411.11 254V201.636H1419.16V254H1411.11ZM1415.2 192.909C1413.64 192.909 1412.28 192.375 1411.15 191.307C1410.03 190.239 1409.48 188.955 1409.48 187.455C1409.48 185.955 1410.03 184.67 1411.15 183.602C1412.28 182.534 1413.64 182 1415.2 182C1416.77 182 1418.11 182.534 1419.23 183.602C1420.36 184.67 1420.93 185.955 1420.93 187.455C1420.93 188.955 1420.36 190.239 1419.23 191.307C1418.11 192.375 1416.77 192.909 1415.2 192.909ZM1441.94 222.5V254H1433.89V201.636H1441.67V209.818H1442.35C1443.58 207.159 1445.44 205.023 1447.94 203.409C1450.44 201.773 1453.67 200.955 1457.62 200.955C1461.17 200.955 1464.27 201.682 1466.93 203.136C1469.59 204.568 1471.66 206.75 1473.13 209.682C1474.61 212.591 1475.35 216.273 1475.35 220.727V254H1467.3V221.273C1467.3 217.159 1466.24 213.955 1464.1 211.659C1461.96 209.341 1459.03 208.182 1455.3 208.182C1452.74 208.182 1450.44 208.739 1448.42 209.852C1446.42 210.966 1444.84 212.591 1443.68 214.727C1442.52 216.864 1441.94 219.455 1441.94 222.5ZM1511.19 274.727C1507.3 274.727 1503.96 274.227 1501.16 273.227C1498.37 272.25 1496.04 270.955 1494.18 269.341C1492.34 267.75 1490.87 266.045 1489.78 264.227L1496.19 259.727C1496.91 260.682 1497.84 261.773 1498.95 263C1500.06 264.25 1501.59 265.33 1503.52 266.239C1505.47 267.17 1508.03 267.636 1511.19 267.636C1515.41 267.636 1518.9 266.614 1521.65 264.568C1524.4 262.523 1525.78 259.318 1525.78 254.955V244.318H1525.1C1524.51 245.273 1523.66 246.455 1522.57 247.864C1521.51 249.25 1519.96 250.489 1517.94 251.58C1515.94 252.648 1513.23 253.182 1509.82 253.182C1505.6 253.182 1501.8 252.182 1498.44 250.182C1495.1 248.182 1492.45 245.273 1490.49 241.455C1488.56 237.636 1487.6 233 1487.6 227.545C1487.6 222.182 1488.54 217.511 1490.43 213.534C1492.31 209.534 1494.94 206.443 1498.3 204.261C1501.66 202.057 1505.55 200.955 1509.96 200.955C1513.37 200.955 1516.07 201.523 1518.07 202.659C1520.1 203.773 1521.64 205.045 1522.71 206.477C1523.8 207.886 1524.64 209.045 1525.23 209.955H1526.05V201.636H1533.82V255.5C1533.82 260 1532.8 263.659 1530.76 266.477C1528.73 269.318 1526.01 271.398 1522.57 272.716C1519.16 274.057 1515.37 274.727 1511.19 274.727ZM1510.91 245.955C1514.14 245.955 1516.87 245.216 1519.1 243.739C1521.32 242.261 1523.02 240.136 1524.18 237.364C1525.34 234.591 1525.91 231.273 1525.91 227.409C1525.91 223.636 1525.35 220.307 1524.21 217.42C1523.07 214.534 1521.39 212.273 1519.16 210.636C1516.94 209 1514.19 208.182 1510.91 208.182C1507.51 208.182 1504.66 209.045 1502.39 210.773C1500.14 212.5 1498.45 214.818 1497.31 217.727C1496.2 220.636 1495.64 223.864 1495.64 227.409C1495.64 231.045 1496.21 234.261 1497.35 237.057C1498.51 239.83 1500.21 242.011 1502.46 243.602C1504.73 245.17 1507.55 245.955 1510.91 245.955ZM1652.19 254.955C1647.05 254.955 1642.68 253.557 1639.06 250.761C1635.45 247.943 1632.69 243.864 1630.78 238.523C1628.87 233.159 1627.91 226.682 1627.91 219.091C1627.91 211.545 1628.87 205.102 1630.78 199.761C1632.71 194.398 1635.48 190.307 1639.1 187.489C1642.73 184.648 1647.1 183.227 1652.19 183.227C1657.28 183.227 1661.63 184.648 1665.24 187.489C1668.88 190.307 1671.65 194.398 1673.56 199.761C1675.49 205.102 1676.46 211.545 1676.46 219.091C1676.46 226.682 1675.51 233.159 1673.6 238.523C1671.69 243.864 1668.93 247.943 1665.31 250.761C1661.7 253.557 1657.32 254.955 1652.19 254.955ZM1652.19 247.455C1657.28 247.455 1661.23 245 1664.05 240.091C1666.87 235.182 1668.28 228.182 1668.28 219.091C1668.28 213.045 1667.63 207.898 1666.34 203.648C1665.06 199.398 1663.22 196.159 1660.81 193.932C1658.43 191.705 1655.55 190.591 1652.19 190.591C1647.14 190.591 1643.2 193.08 1640.36 198.057C1637.52 203.011 1636.1 210.023 1636.1 219.091C1636.1 225.136 1636.73 230.273 1638.01 234.5C1639.28 238.727 1641.11 241.943 1643.49 244.148C1645.9 246.352 1648.8 247.455 1652.19 247.455ZM1692.98 254.545C1691.3 254.545 1689.85 253.943 1688.65 252.739C1687.44 251.534 1686.84 250.091 1686.84 248.409C1686.84 246.727 1687.44 245.284 1688.65 244.08C1689.85 242.875 1691.3 242.273 1692.98 242.273C1694.66 242.273 1696.1 242.875 1697.31 244.08C1698.51 245.284 1699.11 246.727 1699.11 248.409C1699.11 249.523 1698.83 250.545 1698.26 251.477C1697.72 252.409 1696.98 253.159 1696.05 253.727C1695.14 254.273 1694.11 254.545 1692.98 254.545ZM1733.75 254.955C1728.61 254.955 1724.24 253.557 1720.62 250.761C1717.01 247.943 1714.25 243.864 1712.34 238.523C1710.43 233.159 1709.48 226.682 1709.48 219.091C1709.48 211.545 1710.43 205.102 1712.34 199.761C1714.27 194.398 1717.05 190.307 1720.66 187.489C1724.3 184.648 1728.66 183.227 1733.75 183.227C1738.84 183.227 1743.19 184.648 1746.81 187.489C1750.44 190.307 1753.22 194.398 1755.12 199.761C1757.06 205.102 1758.02 211.545 1758.02 219.091C1758.02 226.682 1757.07 233.159 1755.16 238.523C1753.25 243.864 1750.49 247.943 1746.88 250.761C1743.26 253.557 1738.89 254.955 1733.75 254.955ZM1733.75 247.455C1738.84 247.455 1742.8 245 1745.61 240.091C1748.43 235.182 1749.84 228.182 1749.84 219.091C1749.84 213.045 1749.19 207.898 1747.9 203.648C1746.63 199.398 1744.78 196.159 1742.38 193.932C1739.99 191.705 1737.11 190.591 1733.75 190.591C1728.7 190.591 1724.76 193.08 1721.92 198.057C1719.08 203.011 1717.66 210.023 1717.66 219.091C1717.66 225.136 1718.3 230.273 1719.57 234.5C1720.84 238.727 1722.67 241.943 1725.06 244.148C1727.47 246.352 1730.36 247.455 1733.75 247.455ZM1792.8 254.955C1788.8 254.955 1785.19 254.159 1781.99 252.568C1778.78 250.977 1776.22 248.795 1774.28 246.023C1772.35 243.25 1771.3 240.091 1771.11 236.545H1779.3C1779.61 239.705 1781.05 242.318 1783.59 244.386C1786.16 246.432 1789.23 247.455 1792.8 247.455C1795.66 247.455 1798.2 246.784 1800.43 245.443C1802.68 244.102 1804.44 242.261 1805.72 239.92C1807.01 237.557 1807.66 234.886 1807.66 231.909C1807.66 228.864 1806.99 226.148 1805.65 223.761C1804.33 221.352 1802.51 219.455 1800.19 218.068C1797.88 216.682 1795.23 215.977 1792.25 215.955C1790.11 215.932 1787.92 216.261 1785.67 216.943C1783.42 217.602 1781.57 218.455 1780.11 219.5L1772.2 218.545L1776.43 184.182H1812.7V191.682H1783.52L1781.07 212.273H1781.48C1782.91 211.136 1784.7 210.193 1786.86 209.443C1789.02 208.693 1791.27 208.318 1793.61 208.318C1797.89 208.318 1801.69 209.341 1805.03 211.386C1808.4 213.409 1811.03 216.182 1812.94 219.705C1814.88 223.227 1815.84 227.25 1815.84 231.773C1815.84 236.227 1814.84 240.205 1812.84 243.705C1810.86 247.182 1808.14 249.932 1804.66 251.955C1801.18 253.955 1797.23 254.955 1792.8 254.955ZM1864.97 240.909V237.227C1864.97 234.682 1865.5 232.352 1866.54 230.239C1867.61 228.102 1869.16 226.398 1871.18 225.125C1873.22 223.83 1875.7 223.182 1878.61 223.182C1881.57 223.182 1884.04 223.83 1886.04 225.125C1888.04 226.398 1889.55 228.102 1890.58 230.239C1891.6 232.352 1892.11 234.682 1892.11 237.227V240.909C1892.11 243.455 1891.59 245.795 1890.54 247.932C1889.52 250.045 1888 251.75 1885.97 253.045C1883.97 254.318 1881.52 254.955 1878.61 254.955C1875.66 254.955 1873.17 254.318 1871.14 253.045C1869.12 251.75 1867.59 250.045 1866.54 247.932C1865.5 245.795 1864.97 243.455 1864.97 240.909ZM1871.93 237.227V240.909C1871.93 243.023 1872.43 244.92 1873.43 246.602C1874.43 248.261 1876.16 249.091 1878.61 249.091C1881 249.091 1882.68 248.261 1883.66 246.602C1884.66 244.92 1885.16 243.023 1885.16 240.909V237.227C1885.16 235.114 1884.68 233.227 1883.72 231.568C1882.77 229.886 1881.07 229.045 1878.61 229.045C1876.22 229.045 1874.51 229.886 1873.46 231.568C1872.44 233.227 1871.93 235.114 1871.93 237.227ZM1830.2 200.955V197.273C1830.2 194.727 1830.72 192.398 1831.77 190.284C1832.84 188.148 1834.38 186.443 1836.41 185.17C1838.45 183.875 1840.93 183.227 1843.84 183.227C1846.79 183.227 1849.27 183.875 1851.27 185.17C1853.27 186.443 1854.78 188.148 1855.8 190.284C1856.83 192.398 1857.34 194.727 1857.34 197.273V200.955C1857.34 203.5 1856.82 205.841 1855.77 207.977C1854.75 210.091 1853.22 211.795 1851.2 213.091C1849.2 214.364 1846.75 215 1843.84 215C1840.88 215 1838.39 214.364 1836.37 213.091C1834.35 211.795 1832.82 210.091 1831.77 207.977C1830.72 205.841 1830.2 203.5 1830.2 200.955ZM1837.16 197.273V200.955C1837.16 203.068 1837.66 204.966 1838.66 206.648C1839.66 208.307 1841.38 209.136 1843.84 209.136C1846.22 209.136 1847.91 208.307 1848.88 206.648C1849.88 204.966 1850.38 203.068 1850.38 200.955V197.273C1850.38 195.159 1849.91 193.273 1848.95 191.614C1848 189.932 1846.29 189.091 1843.84 189.091C1841.45 189.091 1839.74 189.932 1838.69 191.614C1837.67 193.273 1837.16 195.159 1837.16 197.273ZM1832.79 254L1880.79 184.182H1888.57L1840.57 254H1832.79ZM1214.14 370L1195.05 300.182H1203.64L1218.23 357.045H1218.91L1233.77 300.182H1243.32L1258.18 357.045H1258.86L1273.45 300.182H1282.05L1262.95 370H1254.23L1238.82 314.364H1238.27L1222.86 370H1214.14ZM1302.02 371.227C1298.7 371.227 1295.69 370.602 1292.99 369.352C1290.28 368.08 1288.14 366.25 1286.55 363.864C1284.95 361.455 1284.16 358.545 1284.16 355.136C1284.16 352.136 1284.75 349.705 1285.93 347.841C1287.11 345.955 1288.69 344.477 1290.67 343.409C1292.65 342.341 1294.83 341.545 1297.22 341.023C1299.63 340.477 1302.05 340.045 1304.48 339.727C1307.66 339.318 1310.24 339.011 1312.22 338.807C1314.22 338.58 1315.67 338.205 1316.58 337.682C1317.51 337.159 1317.98 336.25 1317.98 334.955V334.682C1317.98 331.318 1317.06 328.705 1315.22 326.841C1313.4 324.977 1310.64 324.045 1306.93 324.045C1303.09 324.045 1300.08 324.886 1297.9 326.568C1295.72 328.25 1294.18 330.045 1293.3 331.955L1285.66 329.227C1287.02 326.045 1288.84 323.568 1291.11 321.795C1293.41 320 1295.91 318.75 1298.61 318.045C1301.34 317.318 1304.02 316.955 1306.66 316.955C1308.34 316.955 1310.27 317.159 1312.45 317.568C1314.66 317.955 1316.78 318.761 1318.83 319.989C1320.9 321.216 1322.61 323.068 1323.98 325.545C1325.34 328.023 1326.02 331.341 1326.02 335.5V370H1317.98V362.909H1317.57C1317.02 364.045 1316.11 365.261 1314.84 366.557C1313.57 367.852 1311.88 368.955 1309.76 369.864C1307.65 370.773 1305.07 371.227 1302.02 371.227ZM1303.25 364C1306.43 364 1309.11 363.375 1311.3 362.125C1313.5 360.875 1315.16 359.261 1316.27 357.284C1317.41 355.307 1317.98 353.227 1317.98 351.045V343.682C1317.64 344.091 1316.89 344.466 1315.73 344.807C1314.59 345.125 1313.27 345.409 1311.77 345.659C1310.3 345.886 1308.85 346.091 1307.44 346.273C1306.06 346.432 1304.93 346.568 1304.07 346.682C1301.98 346.955 1300.02 347.398 1298.2 348.011C1296.41 348.602 1294.95 349.5 1293.84 350.705C1292.75 351.886 1292.2 353.5 1292.2 355.545C1292.2 358.341 1293.24 360.455 1295.31 361.886C1297.4 363.295 1300.05 364 1303.25 364ZM1348.75 300.182V370H1340.71V300.182H1348.75ZM1371.53 300.182V370H1363.49V300.182H1371.53ZM1408.22 371.091C1403.18 371.091 1398.83 369.977 1395.17 367.75C1391.53 365.5 1388.72 362.364 1386.75 358.341C1384.79 354.295 1383.82 349.591 1383.82 344.227C1383.82 338.864 1384.79 334.136 1386.75 330.045C1388.72 325.932 1391.47 322.727 1395 320.432C1398.54 318.114 1402.68 316.955 1407.41 316.955C1410.13 316.955 1412.83 317.409 1415.49 318.318C1418.14 319.227 1420.57 320.705 1422.75 322.75C1424.93 324.773 1426.67 327.455 1427.96 330.795C1429.26 334.136 1429.91 338.25 1429.91 343.136V346.545H1389.54V339.591H1421.72C1421.72 336.636 1421.13 334 1419.95 331.682C1418.79 329.364 1417.13 327.534 1414.97 326.193C1412.84 324.852 1410.32 324.182 1407.41 324.182C1404.2 324.182 1401.43 324.977 1399.09 326.568C1396.77 328.136 1394.99 330.182 1393.74 332.705C1392.49 335.227 1391.86 337.932 1391.86 340.818V345.455C1391.86 349.409 1392.54 352.761 1393.91 355.511C1395.29 358.239 1397.21 360.318 1399.67 361.75C1402.12 363.159 1404.97 363.864 1408.22 363.864C1410.34 363.864 1412.25 363.568 1413.95 362.977C1415.68 362.364 1417.17 361.455 1418.42 360.25C1419.67 359.023 1420.63 357.5 1421.32 355.682L1429.09 357.864C1428.27 360.5 1426.89 362.818 1424.96 364.818C1423.03 366.795 1420.64 368.341 1417.8 369.455C1414.96 370.545 1411.77 371.091 1408.22 371.091ZM1464.92 317.636V324.455H1437.78V317.636H1464.92ZM1445.69 305.091H1453.74V355C1453.74 357.273 1454.07 358.977 1454.72 360.114C1455.41 361.227 1456.27 361.977 1457.32 362.364C1458.38 362.727 1459.51 362.909 1460.69 362.909C1461.58 362.909 1462.3 362.864 1462.87 362.773C1463.44 362.659 1463.89 362.568 1464.24 362.5L1465.87 369.727C1465.33 369.932 1464.57 370.136 1463.59 370.341C1462.61 370.568 1461.37 370.682 1459.87 370.682C1457.6 370.682 1455.37 370.193 1453.19 369.216C1451.03 368.239 1449.24 366.75 1447.8 364.75C1446.39 362.75 1445.69 360.227 1445.69 357.182V305.091ZM1482.88 370.545C1481.2 370.545 1479.76 369.943 1478.55 368.739C1477.35 367.534 1476.75 366.091 1476.75 364.409C1476.75 362.727 1477.35 361.284 1478.55 360.08C1479.76 358.875 1481.2 358.273 1482.88 358.273C1484.57 358.273 1486.01 358.875 1487.21 360.08C1488.42 361.284 1489.02 362.727 1489.02 364.409C1489.02 365.523 1488.74 366.545 1488.17 367.477C1487.62 368.409 1486.88 369.159 1485.95 369.727C1485.04 370.273 1484.02 370.545 1482.88 370.545ZM1482.88 331.682C1481.2 331.682 1479.76 331.08 1478.55 329.875C1477.35 328.67 1476.75 327.227 1476.75 325.545C1476.75 323.864 1477.35 322.42 1478.55 321.216C1479.76 320.011 1481.2 319.409 1482.88 319.409C1484.57 319.409 1486.01 320.011 1487.21 321.216C1488.42 322.42 1489.02 323.864 1489.02 325.545C1489.02 326.659 1488.74 327.682 1488.17 328.614C1487.62 329.545 1486.88 330.295 1485.95 330.864C1485.04 331.409 1484.02 331.682 1482.88 331.682ZM1642.41 370H1633.55L1659.18 300.182H1667.91L1693.55 370H1684.68L1663.82 311.227H1663.28L1642.41 370ZM1645.68 342.727H1681.41V350.227H1645.68V342.727ZM1703.2 370V363.864L1726.24 338.636C1728.95 335.682 1731.17 333.114 1732.92 330.932C1734.67 328.727 1735.97 326.659 1736.81 324.727C1737.67 322.773 1738.11 320.727 1738.11 318.591C1738.11 316.136 1737.51 314.011 1736.33 312.216C1735.17 310.42 1733.58 309.034 1731.56 308.057C1729.54 307.08 1727.26 306.591 1724.74 306.591C1722.06 306.591 1719.72 307.148 1717.72 308.261C1715.74 309.352 1714.21 310.886 1713.12 312.864C1712.05 314.841 1711.51 317.159 1711.51 319.818H1703.47C1703.47 315.727 1704.41 312.136 1706.3 309.045C1708.18 305.955 1710.75 303.545 1714 301.818C1717.28 300.091 1720.95 299.227 1725.01 299.227C1729.11 299.227 1732.73 300.091 1735.89 301.818C1739.05 303.545 1741.53 305.875 1743.32 308.807C1745.12 311.739 1746.01 315 1746.01 318.591C1746.01 321.159 1745.55 323.67 1744.62 326.125C1743.71 328.557 1742.12 331.273 1739.84 334.273C1737.59 337.25 1734.47 340.886 1730.47 345.182L1714.79 361.955V362.5H1747.24V370H1703.2ZM1784.91 370.955C1780.41 370.955 1776.4 370.182 1772.88 368.636C1769.38 367.091 1766.59 364.943 1764.53 362.193C1762.48 359.42 1761.37 356.205 1761.18 352.545H1769.78C1769.96 354.795 1770.73 356.739 1772.09 358.375C1773.46 359.989 1775.24 361.239 1777.45 362.125C1779.65 363.011 1782.09 363.455 1784.78 363.455C1787.78 363.455 1790.43 362.932 1792.75 361.886C1795.07 360.841 1796.89 359.386 1798.21 357.523C1799.53 355.659 1800.18 353.5 1800.18 351.045C1800.18 348.477 1799.55 346.216 1798.28 344.261C1797 342.284 1795.14 340.739 1792.68 339.625C1790.23 338.511 1787.23 337.955 1783.68 337.955H1778.09V330.455H1783.68C1786.46 330.455 1788.89 329.955 1790.98 328.955C1793.09 327.955 1794.74 326.545 1795.92 324.727C1797.13 322.909 1797.73 320.773 1797.73 318.318C1797.73 315.955 1797.21 313.898 1796.16 312.148C1795.12 310.398 1793.64 309.034 1791.73 308.057C1789.84 307.08 1787.62 306.591 1785.05 306.591C1782.64 306.591 1780.37 307.034 1778.23 307.92C1776.12 308.784 1774.39 310.045 1773.05 311.705C1771.71 313.341 1770.98 315.318 1770.87 317.636H1762.68C1762.82 313.977 1763.92 310.773 1765.99 308.023C1768.06 305.25 1770.76 303.091 1774.11 301.545C1777.47 300 1781.16 299.227 1785.18 299.227C1789.5 299.227 1793.21 300.102 1796.3 301.852C1799.39 303.58 1801.76 305.864 1803.42 308.705C1805.08 311.545 1805.91 314.614 1805.91 317.909C1805.91 321.841 1804.88 325.193 1802.81 327.966C1800.76 330.739 1797.98 332.659 1794.46 333.727V334.273C1798.87 335 1802.31 336.875 1804.79 339.898C1807.26 342.898 1808.5 346.614 1808.5 351.045C1808.5 354.841 1807.47 358.25 1805.4 361.273C1803.36 364.273 1800.56 366.636 1797.01 368.364C1793.47 370.091 1789.43 370.955 1784.91 370.955ZM1861.86 317.636C1861.45 314.182 1859.79 311.5 1856.88 309.591C1853.97 307.682 1850.4 306.727 1846.17 306.727C1843.08 306.727 1840.38 307.227 1838.06 308.227C1835.76 309.227 1833.97 310.602 1832.67 312.352C1831.4 314.102 1830.76 316.091 1830.76 318.318C1830.76 320.182 1831.21 321.784 1832.09 323.125C1833 324.443 1834.16 325.545 1835.57 326.432C1836.98 327.295 1838.46 328.011 1840 328.58C1841.55 329.125 1842.97 329.568 1844.26 329.909L1851.36 331.818C1853.17 332.295 1855.2 332.955 1857.42 333.795C1859.67 334.636 1861.82 335.784 1863.87 337.239C1865.93 338.67 1867.64 340.511 1868.98 342.761C1870.32 345.011 1870.99 347.773 1870.99 351.045C1870.99 354.818 1870 358.227 1868.03 361.273C1866.07 364.318 1863.21 366.739 1859.43 368.534C1855.68 370.33 1851.13 371.227 1845.76 371.227C1840.76 371.227 1836.43 370.42 1832.78 368.807C1829.14 367.193 1826.28 364.943 1824.18 362.057C1822.12 359.17 1820.95 355.818 1820.67 352H1829.4C1829.63 354.636 1830.51 356.818 1832.06 358.545C1833.63 360.25 1835.61 361.523 1837.99 362.364C1840.4 363.182 1842.99 363.591 1845.76 363.591C1848.99 363.591 1851.89 363.068 1854.46 362.023C1857.03 360.955 1859.06 359.477 1860.56 357.591C1862.06 355.682 1862.81 353.455 1862.81 350.909C1862.81 348.591 1862.16 346.705 1860.87 345.25C1859.57 343.795 1857.87 342.614 1855.75 341.705C1853.64 340.795 1851.36 340 1848.9 339.318L1840.31 336.864C1834.86 335.295 1830.54 333.057 1827.36 330.148C1824.17 327.239 1822.58 323.432 1822.58 318.727C1822.58 314.818 1823.64 311.409 1825.75 308.5C1827.89 305.568 1830.75 303.295 1834.34 301.682C1837.96 300.045 1841.99 299.227 1846.45 299.227C1850.95 299.227 1854.95 300.034 1858.45 301.648C1861.95 303.239 1864.72 305.42 1866.76 308.193C1868.83 310.966 1869.92 314.114 1870.04 317.636H1861.86ZM1906.44 370H1884.89V300.182H1907.39C1914.16 300.182 1919.96 301.58 1924.78 304.375C1929.6 307.148 1933.29 311.136 1935.86 316.341C1938.43 321.523 1939.71 327.727 1939.71 334.955C1939.71 342.227 1938.41 348.489 1935.82 353.739C1933.23 358.966 1929.46 362.989 1924.51 365.807C1919.55 368.602 1913.53 370 1906.44 370ZM1893.35 362.5H1905.89C1911.66 362.5 1916.45 361.386 1920.24 359.159C1924.04 356.932 1926.87 353.761 1928.73 349.648C1930.6 345.534 1931.53 340.636 1931.53 334.955C1931.53 329.318 1930.61 324.466 1928.77 320.398C1926.93 316.307 1924.18 313.17 1920.52 310.989C1916.86 308.784 1912.3 307.682 1906.85 307.682H1893.35V362.5ZM1954.26 370.545C1952.58 370.545 1951.13 369.943 1949.93 368.739C1948.72 367.534 1948.12 366.091 1948.12 364.409C1948.12 362.727 1948.72 361.284 1949.93 360.08C1951.13 358.875 1952.58 358.273 1954.26 358.273C1955.94 358.273 1957.38 358.875 1958.59 360.08C1959.79 361.284 1960.39 362.727 1960.39 364.409C1960.39 365.523 1960.11 366.545 1959.54 367.477C1959 368.409 1958.26 369.159 1957.33 369.727C1956.42 370.273 1955.39 370.545 1954.26 370.545ZM1980.7 370.545C1979.01 370.545 1977.57 369.943 1976.37 368.739C1975.16 367.534 1974.56 366.091 1974.56 364.409C1974.56 362.727 1975.16 361.284 1976.37 360.08C1977.57 358.875 1979.01 358.273 1980.7 358.273C1982.38 358.273 1983.82 358.875 1985.03 360.08C1986.23 361.284 1986.83 362.727 1986.83 364.409C1986.83 365.523 1986.55 366.545 1985.98 367.477C1985.43 368.409 1984.7 369.159 1983.76 369.727C1982.86 370.273 1981.83 370.545 1980.7 370.545ZM2007.13 370.545C2005.45 370.545 2004.01 369.943 2002.8 368.739C2001.6 367.534 2001 366.091 2001 364.409C2001 362.727 2001.6 361.284 2002.8 360.08C2004.01 358.875 2005.45 358.273 2007.13 358.273C2008.82 358.273 2010.26 358.875 2011.46 360.08C2012.67 361.284 2013.27 362.727 2013.27 364.409C2013.27 365.523 2012.99 366.545 2012.42 367.477C2011.87 368.409 2011.13 369.159 2010.2 369.727C2009.29 370.273 2008.27 370.545 2007.13 370.545ZM2033.57 370.545C2031.89 370.545 2030.45 369.943 2029.24 368.739C2028.04 367.534 2027.43 366.091 2027.43 364.409C2027.43 362.727 2028.04 361.284 2029.24 360.08C2030.45 358.875 2031.89 358.273 2033.57 358.273C2035.25 358.273 2036.7 358.875 2037.9 360.08C2039.11 361.284 2039.71 362.727 2039.71 364.409C2039.71 365.523 2039.42 366.545 2038.86 367.477C2038.31 368.409 2037.57 369.159 2036.64 369.727C2035.73 370.273 2034.71 370.545 2033.57 370.545ZM2055.24 370V300.182H2079.64C2084.51 300.182 2088.52 301.023 2091.68 302.705C2094.84 304.364 2097.19 306.602 2098.74 309.42C2100.28 312.216 2101.05 315.318 2101.05 318.727C2101.05 321.727 2100.52 324.205 2099.45 326.159C2098.41 328.114 2097.02 329.659 2095.29 330.795C2093.59 331.932 2091.74 332.773 2089.74 333.318V334C2091.87 334.136 2094.02 334.886 2096.18 336.25C2098.34 337.614 2100.14 339.568 2101.6 342.114C2103.05 344.659 2103.78 347.773 2103.78 351.455C2103.78 354.955 2102.99 358.102 2101.39 360.898C2099.8 363.693 2097.29 365.909 2093.86 367.545C2090.43 369.182 2085.96 370 2080.46 370H2055.24ZM2063.69 362.5H2080.46C2085.99 362.5 2089.91 361.432 2092.22 359.295C2094.57 357.136 2095.74 354.523 2095.74 351.455C2095.74 349.091 2095.13 346.909 2093.93 344.909C2092.72 342.886 2091.01 341.273 2088.78 340.068C2086.55 338.841 2083.92 338.227 2080.87 338.227H2063.69V362.5ZM2063.69 330.864H2079.37C2081.92 330.864 2084.21 330.364 2086.26 329.364C2088.33 328.364 2089.96 326.955 2091.17 325.136C2092.39 323.318 2093.01 321.182 2093.01 318.727C2093.01 315.659 2091.94 313.057 2089.8 310.92C2087.67 308.761 2084.28 307.682 2079.64 307.682H2063.69V330.864ZM2116.45 370V363.864L2139.49 338.636C2142.2 335.682 2144.42 333.114 2146.17 330.932C2147.92 328.727 2149.22 326.659 2150.06 324.727C2150.92 322.773 2151.36 320.727 2151.36 318.591C2151.36 316.136 2150.76 314.011 2149.58 312.216C2148.42 310.42 2146.83 309.034 2144.81 308.057C2142.79 307.08 2140.51 306.591 2137.99 306.591C2135.31 306.591 2132.97 307.148 2130.97 308.261C2128.99 309.352 2127.46 310.886 2126.37 312.864C2125.3 314.841 2124.76 317.159 2124.76 319.818H2116.72C2116.72 315.727 2117.66 312.136 2119.55 309.045C2121.43 305.955 2124 303.545 2127.25 301.818C2130.53 300.091 2134.2 299.227 2138.26 299.227C2142.36 299.227 2145.98 300.091 2149.14 301.818C2152.3 303.545 2154.78 305.875 2156.57 308.807C2158.37 311.739 2159.26 315 2159.26 318.591C2159.26 321.159 2158.8 323.67 2157.87 326.125C2156.96 328.557 2155.37 331.273 2153.09 334.273C2150.84 337.25 2147.72 340.886 2143.72 345.182L2128.04 361.955V362.5H2160.49V370H2116.45ZM2199.12 300.182V370H2190.66V309.045H2190.25L2173.21 320.364V311.773L2190.66 300.182H2199.12ZM2220.42 370V300.182H2262.56V307.682H2228.88V331.273H2260.38V338.773H2228.88V362.5H2263.11V370H2220.42Z" fill="white"/>
</svg>
