<svg width="2337" height="584" viewBox="0 0 2337 584" fill="none" xmlns="http://www.w3.org/2000/svg">
<rect x="5" y="5" width="2327" height="574" rx="145" fill="#3D2468" stroke="#1C074A" stroke-width="10"/>
<circle cx="155.5" cy="291.5" r="37.5" fill="#784C28"/>
<path d="M303.857 320H287.379L312.486 247.273H332.301L357.372 320H340.895L322.678 263.892H322.109L303.857 320ZM302.827 291.413H341.747V303.416H302.827V291.413ZM387.947 321.065C382.36 321.065 377.554 319.882 373.53 317.514C369.529 315.123 366.451 311.809 364.297 307.571C362.166 303.333 361.101 298.456 361.101 292.94C361.101 287.353 362.178 282.453 364.332 278.239C366.51 274.001 369.6 270.698 373.601 268.331C377.602 265.94 382.36 264.744 387.876 264.744C392.635 264.744 396.802 265.608 400.376 267.337C403.951 269.065 406.78 271.491 408.864 274.616C410.947 277.741 412.095 281.411 412.308 285.625H398.033C397.63 282.902 396.565 280.713 394.837 279.055C393.132 277.375 390.895 276.534 388.125 276.534C385.781 276.534 383.733 277.173 381.982 278.452C380.253 279.706 378.904 281.541 377.933 283.956C376.963 286.371 376.477 289.295 376.477 292.727C376.477 296.207 376.951 299.167 377.898 301.605C378.868 304.044 380.23 305.902 381.982 307.18C383.733 308.459 385.781 309.098 388.125 309.098C389.853 309.098 391.404 308.743 392.777 308.033C394.174 307.322 395.322 306.293 396.222 304.943C397.145 303.57 397.749 301.925 398.033 300.007H412.308C412.071 304.174 410.935 307.843 408.899 311.016C406.887 314.164 404.105 316.626 400.554 318.402C397.003 320.178 392.801 321.065 387.947 321.065ZM446.639 321.065C441.052 321.065 436.246 319.882 432.221 317.514C428.22 315.123 425.143 311.809 422.988 307.571C420.858 303.333 419.792 298.456 419.792 292.94C419.792 287.353 420.869 282.453 423.024 278.239C425.202 274.001 428.291 270.698 432.292 268.331C436.293 265.94 441.052 264.744 446.568 264.744C451.326 264.744 455.493 265.608 459.068 267.337C462.643 269.065 465.472 271.491 467.555 274.616C469.638 277.741 470.787 281.411 471 285.625H456.724C456.322 282.902 455.256 280.713 453.528 279.055C451.824 277.375 449.586 276.534 446.816 276.534C444.473 276.534 442.425 277.173 440.673 278.452C438.945 279.706 437.595 281.541 436.625 283.956C435.654 286.371 435.169 289.295 435.169 292.727C435.169 296.207 435.642 299.167 436.589 301.605C437.56 304.044 438.921 305.902 440.673 307.18C442.425 308.459 444.473 309.098 446.816 309.098C448.545 309.098 450.095 308.743 451.468 308.033C452.865 307.322 454.013 306.293 454.913 304.943C455.836 303.57 456.44 301.925 456.724 300.007H471C470.763 304.174 469.627 307.843 467.591 311.016C465.578 314.164 462.797 316.626 459.245 318.402C455.694 320.178 451.492 321.065 446.639 321.065ZM505.543 321.065C499.933 321.065 495.103 319.929 491.055 317.656C487.03 315.36 483.929 312.116 481.751 307.926C479.573 303.712 478.484 298.729 478.484 292.976C478.484 287.365 479.573 282.441 481.751 278.203C483.929 273.965 486.995 270.663 490.948 268.295C494.925 265.928 499.589 264.744 504.94 264.744C508.538 264.744 511.888 265.324 514.989 266.484C518.114 267.621 520.837 269.337 523.157 271.634C525.501 273.93 527.324 276.818 528.626 280.298C529.928 283.755 530.579 287.803 530.579 292.443V296.598H484.521V287.223H516.339C516.339 285.045 515.865 283.116 514.918 281.435C513.971 279.754 512.657 278.44 510.977 277.493C509.319 276.522 507.39 276.037 505.188 276.037C502.892 276.037 500.856 276.57 499.08 277.635C497.328 278.677 495.955 280.085 494.961 281.861C493.967 283.613 493.458 285.566 493.434 287.72V296.634C493.434 299.332 493.931 301.664 494.925 303.629C495.943 305.594 497.376 307.109 499.222 308.175C501.069 309.24 503.259 309.773 505.792 309.773C507.473 309.773 509.012 309.536 510.408 309.062C511.805 308.589 513.001 307.879 513.995 306.932C514.989 305.985 515.747 304.825 516.268 303.452L530.259 304.375C529.549 307.737 528.093 310.672 525.891 313.182C523.713 315.668 520.896 317.609 517.44 319.006C514.007 320.379 510.041 321.065 505.543 321.065ZM585.835 281.009L571.985 281.861C571.748 280.677 571.239 279.612 570.458 278.665C569.677 277.694 568.647 276.925 567.369 276.357C566.114 275.765 564.611 275.469 562.859 275.469C560.515 275.469 558.538 275.966 556.928 276.96C555.318 277.931 554.513 279.233 554.513 280.866C554.513 282.169 555.034 283.269 556.076 284.169C557.118 285.069 558.905 285.791 561.438 286.335L571.31 288.324C576.613 289.413 580.567 291.165 583.171 293.58C585.775 295.994 587.077 299.167 587.077 303.097C587.077 306.671 586.024 309.808 583.917 312.507C581.834 315.206 578.969 317.313 575.323 318.828C571.701 320.32 567.522 321.065 562.788 321.065C555.567 321.065 549.814 319.562 545.529 316.555C541.268 313.525 538.77 309.406 538.036 304.197L552.915 303.416C553.365 305.618 554.454 307.299 556.183 308.459C557.911 309.595 560.124 310.163 562.823 310.163C565.475 310.163 567.605 309.654 569.215 308.636C570.849 307.595 571.677 306.257 571.701 304.624C571.677 303.25 571.097 302.126 569.961 301.25C568.825 300.35 567.073 299.664 564.705 299.19L555.259 297.308C549.933 296.243 545.967 294.396 543.363 291.768C540.782 289.141 539.492 285.791 539.492 281.719C539.492 278.215 540.439 275.196 542.333 272.663C544.251 270.13 546.938 268.177 550.394 266.804C553.874 265.431 557.946 264.744 562.61 264.744C569.499 264.744 574.921 266.2 578.874 269.112C582.852 272.024 585.172 275.99 585.835 281.009ZM641.987 281.009L628.137 281.861C627.901 280.677 627.392 279.612 626.61 278.665C625.829 277.694 624.799 276.925 623.521 276.357C622.266 275.765 620.763 275.469 619.011 275.469C616.667 275.469 614.69 275.966 613.081 276.96C611.471 277.931 610.666 279.233 610.666 280.866C610.666 282.169 611.187 283.269 612.228 284.169C613.27 285.069 615.057 285.791 617.591 286.335L627.463 288.324C632.766 289.413 636.719 291.165 639.324 293.58C641.928 295.994 643.23 299.167 643.23 303.097C643.23 306.671 642.176 309.808 640.069 312.507C637.986 315.206 635.121 317.313 631.475 318.828C627.853 320.32 623.675 321.065 618.94 321.065C611.719 321.065 605.967 319.562 601.681 316.555C597.42 313.525 594.922 309.406 594.189 304.197L609.068 303.416C609.518 305.618 610.607 307.299 612.335 308.459C614.063 309.595 616.277 310.163 618.975 310.163C621.627 310.163 623.758 309.654 625.368 308.636C627.001 307.595 627.83 306.257 627.853 304.624C627.83 303.25 627.25 302.126 626.113 301.25C624.977 300.35 623.225 299.664 620.858 299.19L611.412 297.308C606.085 296.243 602.119 294.396 599.515 291.768C596.935 289.141 595.645 285.791 595.645 281.719C595.645 278.215 596.592 275.196 598.485 272.663C600.403 270.13 603.09 268.177 606.547 266.804C610.027 265.431 614.099 264.744 618.762 264.744C625.652 264.744 631.073 266.2 635.027 269.112C639.004 272.024 641.324 275.99 641.987 281.009ZM701.966 320H676.184V247.273H702.179C709.494 247.273 715.791 248.729 721.071 251.641C726.35 254.529 730.41 258.684 733.251 264.105C736.116 269.527 737.548 276.013 737.548 283.565C737.548 291.141 736.116 297.652 733.251 303.097C730.41 308.542 726.326 312.72 721 315.632C715.697 318.544 709.352 320 701.966 320ZM691.561 306.825H701.326C705.872 306.825 709.695 306.02 712.797 304.411C715.922 302.777 718.265 300.256 719.828 296.847C721.414 293.414 722.207 288.987 722.207 283.565C722.207 278.191 721.414 273.8 719.828 270.391C718.265 266.982 715.933 264.472 712.832 262.862C709.731 261.252 705.907 260.447 701.362 260.447H691.561V306.825ZM773.512 321.065C767.901 321.065 763.072 319.929 759.023 317.656C754.999 315.36 751.897 312.116 749.719 307.926C747.541 303.712 746.452 298.729 746.452 292.976C746.452 287.365 747.541 282.441 749.719 278.203C751.897 273.965 754.963 270.663 758.917 268.295C762.894 265.928 767.558 264.744 772.908 264.744C776.507 264.744 779.857 265.324 782.958 266.484C786.083 267.621 788.806 269.337 791.126 271.634C793.469 273.93 795.292 276.818 796.594 280.298C797.897 283.755 798.548 287.803 798.548 292.443V296.598H752.489V287.223H784.308C784.308 285.045 783.834 283.116 782.887 281.435C781.94 279.754 780.626 278.44 778.945 277.493C777.288 276.522 775.359 276.037 773.157 276.037C770.861 276.037 768.825 276.57 767.049 277.635C765.297 278.677 763.924 280.085 762.93 281.861C761.935 283.613 761.426 285.566 761.403 287.72V296.634C761.403 299.332 761.9 301.664 762.894 303.629C763.912 305.594 765.344 307.109 767.191 308.175C769.038 309.24 771.228 309.773 773.761 309.773C775.442 309.773 776.98 309.536 778.377 309.062C779.774 308.589 780.969 307.879 781.964 306.932C782.958 305.985 783.716 304.825 784.237 303.452L798.228 304.375C797.518 307.737 796.062 310.672 793.86 313.182C791.682 315.668 788.865 317.609 785.408 319.006C781.976 320.379 778.01 321.065 773.512 321.065ZM823.548 288.466V320H808.42V265.455H822.837V275.078H823.477C824.684 271.906 826.708 269.396 829.549 267.55C832.39 265.679 835.835 264.744 839.883 264.744C843.671 264.744 846.973 265.573 849.79 267.23C852.608 268.887 854.798 271.255 856.36 274.332C857.923 277.386 858.704 281.032 858.704 285.27V320H843.576V287.969C843.6 284.631 842.747 282.027 841.019 280.156C839.291 278.262 836.912 277.315 833.881 277.315C831.845 277.315 830.046 277.753 828.484 278.629C826.945 279.505 825.737 280.784 824.862 282.464C824.009 284.122 823.571 286.122 823.548 288.466ZM870.627 320V265.455H885.755V320H870.627ZM878.226 258.423C875.977 258.423 874.048 257.678 872.438 256.186C870.852 254.671 870.059 252.86 870.059 250.753C870.059 248.67 870.852 246.882 872.438 245.391C874.048 243.875 875.977 243.118 878.226 243.118C880.475 243.118 882.393 243.875 883.979 245.391C885.589 246.882 886.394 248.67 886.394 250.753C886.394 252.86 885.589 254.671 883.979 256.186C882.393 257.678 880.475 258.423 878.226 258.423ZM922.731 321.065C917.12 321.065 912.29 319.929 908.242 317.656C904.218 315.36 901.116 312.116 898.938 307.926C896.76 303.712 895.671 298.729 895.671 292.976C895.671 287.365 896.76 282.441 898.938 278.203C901.116 273.965 904.182 270.663 908.136 268.295C912.113 265.928 916.777 264.744 922.127 264.744C925.726 264.744 929.076 265.324 932.177 266.484C935.302 267.621 938.024 269.337 940.344 271.634C942.688 273.93 944.511 276.818 945.813 280.298C947.115 283.755 947.766 287.803 947.766 292.443V296.598H901.708V287.223H933.526C933.526 285.045 933.053 283.116 932.106 281.435C931.159 279.754 929.845 278.44 928.164 277.493C926.507 276.522 924.577 276.037 922.376 276.037C920.079 276.037 918.043 276.57 916.268 277.635C914.516 278.677 913.143 280.085 912.148 281.861C911.154 283.613 910.645 285.566 910.621 287.72V296.634C910.621 299.332 911.119 301.664 912.113 303.629C913.131 305.594 914.563 307.109 916.41 308.175C918.256 309.24 920.446 309.773 922.979 309.773C924.66 309.773 926.199 309.536 927.596 309.062C928.993 308.589 930.188 307.879 931.183 306.932C932.177 305.985 932.934 304.825 933.455 303.452L947.447 304.375C946.737 307.737 945.281 310.672 943.079 313.182C940.901 315.668 938.084 317.609 934.627 319.006C931.194 320.379 927.229 321.065 922.731 321.065ZM977.738 320.888C973.595 320.888 969.843 319.822 966.481 317.692C963.143 315.537 960.491 312.377 958.526 308.21C956.585 304.02 955.614 298.883 955.614 292.798C955.614 286.548 956.621 281.352 958.633 277.209C960.645 273.042 963.32 269.929 966.658 267.869C970.02 265.786 973.701 264.744 977.702 264.744C980.756 264.744 983.301 265.265 985.337 266.307C987.397 267.325 989.054 268.603 990.309 270.142C991.587 271.657 992.558 273.149 993.221 274.616H993.683V247.273H1008.77V320H993.86V311.264H993.221C992.511 312.779 991.504 314.283 990.202 315.774C988.924 317.242 987.255 318.461 985.195 319.432C983.159 320.402 980.674 320.888 977.738 320.888ZM982.532 308.849C984.97 308.849 987.03 308.187 988.711 306.861C990.415 305.511 991.718 303.629 992.617 301.214C993.54 298.8 994.002 295.971 994.002 292.727C994.002 289.484 993.552 286.667 992.653 284.276C991.753 281.884 990.451 280.038 988.746 278.736C987.042 277.434 984.97 276.783 982.532 276.783C980.046 276.783 977.951 277.457 976.246 278.807C974.542 280.156 973.252 282.027 972.376 284.418C971.5 286.809 971.062 289.579 971.062 292.727C971.062 295.9 971.5 298.705 972.376 301.143C973.275 303.558 974.566 305.452 976.246 306.825C977.951 308.175 980.046 308.849 982.532 308.849Z" fill="white"/>
<path d="M1201.45 254V184.182H1209.91V215.273H1247.14V184.182H1255.59V254H1247.14V222.773H1209.91V254H1201.45ZM1292.7 255.091C1287.97 255.091 1283.82 253.966 1280.26 251.716C1276.71 249.466 1273.94 246.318 1271.94 242.273C1269.96 238.227 1268.97 233.5 1268.97 228.091C1268.97 222.636 1269.96 217.875 1271.94 213.807C1273.94 209.739 1276.71 206.58 1280.26 204.33C1283.82 202.08 1287.97 200.955 1292.7 200.955C1297.43 200.955 1301.56 202.08 1305.11 204.33C1308.68 206.58 1311.45 209.739 1313.43 213.807C1315.43 217.875 1316.43 222.636 1316.43 228.091C1316.43 233.5 1315.43 238.227 1313.43 242.273C1311.45 246.318 1308.68 249.466 1305.11 251.716C1301.56 253.966 1297.43 255.091 1292.7 255.091ZM1292.7 247.864C1296.29 247.864 1299.24 246.943 1301.56 245.102C1303.88 243.261 1305.6 240.841 1306.71 237.841C1307.82 234.841 1308.38 231.591 1308.38 228.091C1308.38 224.591 1307.82 221.33 1306.71 218.307C1305.6 215.284 1303.88 212.841 1301.56 210.977C1299.24 209.114 1296.29 208.182 1292.7 208.182C1289.11 208.182 1286.15 209.114 1283.84 210.977C1281.52 212.841 1279.8 215.284 1278.69 218.307C1277.57 221.33 1277.02 224.591 1277.02 228.091C1277.02 231.591 1277.57 234.841 1278.69 237.841C1279.8 240.841 1281.52 243.261 1283.84 245.102C1286.15 246.943 1289.11 247.864 1292.7 247.864ZM1336.75 184.182V254H1328.71V184.182H1336.75ZM1371.26 255.091C1366.9 255.091 1363.05 253.989 1359.7 251.784C1356.36 249.557 1353.75 246.42 1351.86 242.375C1349.98 238.307 1349.03 233.5 1349.03 227.955C1349.03 222.455 1349.98 217.682 1351.86 213.636C1353.75 209.591 1356.38 206.466 1359.74 204.261C1363.1 202.057 1366.99 200.955 1371.4 200.955C1374.81 200.955 1377.5 201.523 1379.48 202.659C1381.48 203.773 1383 205.045 1384.05 206.477C1385.11 207.886 1385.94 209.045 1386.53 209.955H1387.22V184.182H1395.26V254H1387.49V245.955H1386.53C1385.94 246.909 1385.1 248.114 1384.01 249.568C1382.92 251 1381.36 252.284 1379.34 253.42C1377.32 254.534 1374.63 255.091 1371.26 255.091ZM1372.35 247.864C1375.58 247.864 1378.31 247.023 1380.53 245.341C1382.76 243.636 1384.45 241.284 1385.61 238.284C1386.77 235.261 1387.35 231.773 1387.35 227.818C1387.35 223.909 1386.78 220.489 1385.65 217.557C1384.51 214.602 1382.83 212.307 1380.6 210.67C1378.38 209.011 1375.63 208.182 1372.35 208.182C1368.94 208.182 1366.1 209.057 1363.83 210.807C1361.58 212.534 1359.89 214.886 1358.75 217.864C1357.64 220.818 1357.08 224.136 1357.08 227.818C1357.08 231.545 1357.65 234.932 1358.78 237.977C1359.94 241 1361.65 243.409 1363.9 245.205C1366.17 246.977 1368.99 247.864 1372.35 247.864ZM1411.11 254V201.636H1419.16V254H1411.11ZM1415.2 192.909C1413.64 192.909 1412.28 192.375 1411.15 191.307C1410.03 190.239 1409.48 188.955 1409.48 187.455C1409.48 185.955 1410.03 184.67 1411.15 183.602C1412.28 182.534 1413.64 182 1415.2 182C1416.77 182 1418.11 182.534 1419.23 183.602C1420.36 184.67 1420.93 185.955 1420.93 187.455C1420.93 188.955 1420.36 190.239 1419.23 191.307C1418.11 192.375 1416.77 192.909 1415.2 192.909ZM1441.94 222.5V254H1433.89V201.636H1441.67V209.818H1442.35C1443.58 207.159 1445.44 205.023 1447.94 203.409C1450.44 201.773 1453.67 200.955 1457.62 200.955C1461.17 200.955 1464.27 201.682 1466.93 203.136C1469.59 204.568 1471.66 206.75 1473.13 209.682C1474.61 212.591 1475.35 216.273 1475.35 220.727V254H1467.3V221.273C1467.3 217.159 1466.24 213.955 1464.1 211.659C1461.96 209.341 1459.03 208.182 1455.3 208.182C1452.74 208.182 1450.44 208.739 1448.42 209.852C1446.42 210.966 1444.84 212.591 1443.68 214.727C1442.52 216.864 1441.94 219.455 1441.94 222.5ZM1511.19 274.727C1507.3 274.727 1503.96 274.227 1501.16 273.227C1498.37 272.25 1496.04 270.955 1494.18 269.341C1492.34 267.75 1490.87 266.045 1489.78 264.227L1496.19 259.727C1496.91 260.682 1497.84 261.773 1498.95 263C1500.06 264.25 1501.59 265.33 1503.52 266.239C1505.47 267.17 1508.03 267.636 1511.19 267.636C1515.41 267.636 1518.9 266.614 1521.65 264.568C1524.4 262.523 1525.78 259.318 1525.78 254.955V244.318H1525.1C1524.51 245.273 1523.66 246.455 1522.57 247.864C1521.51 249.25 1519.96 250.489 1517.94 251.58C1515.94 252.648 1513.23 253.182 1509.82 253.182C1505.6 253.182 1501.8 252.182 1498.44 250.182C1495.1 248.182 1492.45 245.273 1490.49 241.455C1488.56 237.636 1487.6 233 1487.6 227.545C1487.6 222.182 1488.54 217.511 1490.43 213.534C1492.31 209.534 1494.94 206.443 1498.3 204.261C1501.66 202.057 1505.55 200.955 1509.96 200.955C1513.37 200.955 1516.07 201.523 1518.07 202.659C1520.1 203.773 1521.64 205.045 1522.71 206.477C1523.8 207.886 1524.64 209.045 1525.23 209.955H1526.05V201.636H1533.82V255.5C1533.82 260 1532.8 263.659 1530.76 266.477C1528.73 269.318 1526.01 271.398 1522.57 272.716C1519.16 274.057 1515.37 274.727 1511.19 274.727ZM1510.91 245.955C1514.14 245.955 1516.87 245.216 1519.1 243.739C1521.32 242.261 1523.02 240.136 1524.18 237.364C1525.34 234.591 1525.91 231.273 1525.91 227.409C1525.91 223.636 1525.35 220.307 1524.21 217.42C1523.07 214.534 1521.39 212.273 1519.16 210.636C1516.94 209 1514.19 208.182 1510.91 208.182C1507.51 208.182 1504.66 209.045 1502.39 210.773C1500.14 212.5 1498.45 214.818 1497.31 217.727C1496.2 220.636 1495.64 223.864 1495.64 227.409C1495.64 231.045 1496.21 234.261 1497.35 237.057C1498.51 239.83 1500.21 242.011 1502.46 243.602C1504.73 245.17 1507.55 245.955 1510.91 245.955ZM1652.19 254.955C1647.05 254.955 1642.68 253.557 1639.06 250.761C1635.45 247.943 1632.69 243.864 1630.78 238.523C1628.87 233.159 1627.91 226.682 1627.91 219.091C1627.91 211.545 1628.87 205.102 1630.78 199.761C1632.71 194.398 1635.48 190.307 1639.1 187.489C1642.73 184.648 1647.1 183.227 1652.19 183.227C1657.28 183.227 1661.63 184.648 1665.24 187.489C1668.88 190.307 1671.65 194.398 1673.56 199.761C1675.49 205.102 1676.46 211.545 1676.46 219.091C1676.46 226.682 1675.51 233.159 1673.6 238.523C1671.69 243.864 1668.93 247.943 1665.31 250.761C1661.7 253.557 1657.32 254.955 1652.19 254.955ZM1652.19 247.455C1657.28 247.455 1661.23 245 1664.05 240.091C1666.87 235.182 1668.28 228.182 1668.28 219.091C1668.28 213.045 1667.63 207.898 1666.34 203.648C1665.06 199.398 1663.22 196.159 1660.81 193.932C1658.43 191.705 1655.55 190.591 1652.19 190.591C1647.14 190.591 1643.2 193.08 1640.36 198.057C1637.52 203.011 1636.1 210.023 1636.1 219.091C1636.1 225.136 1636.73 230.273 1638.01 234.5C1639.28 238.727 1641.11 241.943 1643.49 244.148C1645.9 246.352 1648.8 247.455 1652.19 247.455ZM1692.98 254.545C1691.3 254.545 1689.85 253.943 1688.65 252.739C1687.44 251.534 1686.84 250.091 1686.84 248.409C1686.84 246.727 1687.44 245.284 1688.65 244.08C1689.85 242.875 1691.3 242.273 1692.98 242.273C1694.66 242.273 1696.1 242.875 1697.31 244.08C1698.51 245.284 1699.11 246.727 1699.11 248.409C1699.11 249.523 1698.83 250.545 1698.26 251.477C1697.72 252.409 1696.98 253.159 1696.05 253.727C1695.14 254.273 1694.11 254.545 1692.98 254.545ZM1729.62 184.182V254H1721.16V193.045H1720.75L1703.71 204.364V195.773L1721.16 184.182H1729.62ZM1771.92 183.227C1774.79 183.25 1777.65 183.795 1780.51 184.864C1783.38 185.932 1785.99 187.705 1788.36 190.182C1790.72 192.636 1792.62 195.989 1794.05 200.239C1795.48 204.489 1796.2 209.818 1796.2 216.227C1796.2 222.432 1795.61 227.943 1794.42 232.761C1793.26 237.557 1791.58 241.602 1789.38 244.898C1787.2 248.193 1784.54 250.693 1781.4 252.398C1778.29 254.102 1774.76 254.955 1770.83 254.955C1766.92 254.955 1763.43 254.182 1760.37 252.636C1757.32 251.068 1754.82 248.898 1752.87 246.125C1750.93 243.33 1749.7 240.091 1749.15 236.409H1757.47C1758.22 239.614 1759.71 242.261 1761.93 244.352C1764.18 246.42 1767.15 247.455 1770.83 247.455C1776.22 247.455 1780.47 245.102 1783.58 240.398C1786.72 235.693 1788.29 229.045 1788.29 220.455H1787.74C1786.47 222.364 1784.96 224.011 1783.21 225.398C1781.46 226.784 1779.51 227.852 1777.38 228.602C1775.24 229.352 1772.97 229.727 1770.56 229.727C1766.56 229.727 1762.89 228.739 1759.55 226.761C1756.23 224.761 1753.57 222.023 1751.57 218.545C1749.59 215.045 1748.61 211.045 1748.61 206.545C1748.61 202.273 1749.56 198.364 1751.47 194.818C1753.4 191.25 1756.11 188.409 1759.58 186.295C1763.08 184.182 1767.2 183.159 1771.92 183.227ZM1771.92 190.727C1769.06 190.727 1766.48 191.443 1764.18 192.875C1761.91 194.284 1760.11 196.193 1758.76 198.602C1757.45 200.989 1756.79 203.636 1756.79 206.545C1756.79 209.455 1757.42 212.102 1758.7 214.489C1759.99 216.852 1761.75 218.739 1763.98 220.148C1766.23 221.534 1768.79 222.227 1771.65 222.227C1773.81 222.227 1775.82 221.807 1777.68 220.966C1779.55 220.102 1781.17 218.932 1782.56 217.455C1783.97 215.955 1785.07 214.261 1785.87 212.375C1786.66 210.466 1787.06 208.477 1787.06 206.409C1787.06 203.682 1786.4 201.125 1785.08 198.739C1783.79 196.352 1781.99 194.42 1779.7 192.943C1777.42 191.466 1774.83 190.727 1771.92 190.727ZM1845.19 240.909V237.227C1845.19 234.682 1845.72 232.352 1846.76 230.239C1847.83 228.102 1849.38 226.398 1851.4 225.125C1853.44 223.83 1855.92 223.182 1858.83 223.182C1861.78 223.182 1864.26 223.83 1866.26 225.125C1868.26 226.398 1869.77 228.102 1870.8 230.239C1871.82 232.352 1872.33 234.682 1872.33 237.227V240.909C1872.33 243.455 1871.81 245.795 1870.76 247.932C1869.74 250.045 1868.22 251.75 1866.19 253.045C1864.19 254.318 1861.74 254.955 1858.83 254.955C1855.88 254.955 1853.39 254.318 1851.36 253.045C1849.34 251.75 1847.81 250.045 1846.76 247.932C1845.72 245.795 1845.19 243.455 1845.19 240.909ZM1852.15 237.227V240.909C1852.15 243.023 1852.65 244.92 1853.65 246.602C1854.65 248.261 1856.38 249.091 1858.83 249.091C1861.22 249.091 1862.9 248.261 1863.88 246.602C1864.88 244.92 1865.38 243.023 1865.38 240.909V237.227C1865.38 235.114 1864.9 233.227 1863.94 231.568C1862.99 229.886 1861.28 229.045 1858.83 229.045C1856.44 229.045 1854.73 229.886 1853.68 231.568C1852.66 233.227 1852.15 235.114 1852.15 237.227ZM1810.42 200.955V197.273C1810.42 194.727 1810.94 192.398 1811.99 190.284C1813.06 188.148 1814.6 186.443 1816.62 185.17C1818.67 183.875 1821.15 183.227 1824.06 183.227C1827.01 183.227 1829.49 183.875 1831.49 185.17C1833.49 186.443 1835 188.148 1836.02 190.284C1837.05 192.398 1837.56 194.727 1837.56 197.273V200.955C1837.56 203.5 1837.03 205.841 1835.99 207.977C1834.97 210.091 1833.44 211.795 1831.42 213.091C1829.42 214.364 1826.97 215 1824.06 215C1821.1 215 1818.61 214.364 1816.59 213.091C1814.57 211.795 1813.03 210.091 1811.99 207.977C1810.94 205.841 1810.42 203.5 1810.42 200.955ZM1817.38 197.273V200.955C1817.38 203.068 1817.88 204.966 1818.88 206.648C1819.88 208.307 1821.6 209.136 1824.06 209.136C1826.44 209.136 1828.13 208.307 1829.1 206.648C1830.1 204.966 1830.6 203.068 1830.6 200.955V197.273C1830.6 195.159 1830.12 193.273 1829.17 191.614C1828.22 189.932 1826.51 189.091 1824.06 189.091C1821.67 189.091 1819.95 189.932 1818.91 191.614C1817.89 193.273 1817.38 195.159 1817.38 197.273ZM1813.01 254L1861.01 184.182H1868.78L1820.78 254H1813.01ZM1214.14 370L1195.05 300.182H1203.64L1218.23 357.045H1218.91L1233.77 300.182H1243.32L1258.18 357.045H1258.86L1273.45 300.182H1282.05L1262.95 370H1254.23L1238.82 314.364H1238.27L1222.86 370H1214.14ZM1302.02 371.227C1298.7 371.227 1295.69 370.602 1292.99 369.352C1290.28 368.08 1288.14 366.25 1286.55 363.864C1284.95 361.455 1284.16 358.545 1284.16 355.136C1284.16 352.136 1284.75 349.705 1285.93 347.841C1287.11 345.955 1288.69 344.477 1290.67 343.409C1292.65 342.341 1294.83 341.545 1297.22 341.023C1299.63 340.477 1302.05 340.045 1304.48 339.727C1307.66 339.318 1310.24 339.011 1312.22 338.807C1314.22 338.58 1315.67 338.205 1316.58 337.682C1317.51 337.159 1317.98 336.25 1317.98 334.955V334.682C1317.98 331.318 1317.06 328.705 1315.22 326.841C1313.4 324.977 1310.64 324.045 1306.93 324.045C1303.09 324.045 1300.08 324.886 1297.9 326.568C1295.72 328.25 1294.18 330.045 1293.3 331.955L1285.66 329.227C1287.02 326.045 1288.84 323.568 1291.11 321.795C1293.41 320 1295.91 318.75 1298.61 318.045C1301.34 317.318 1304.02 316.955 1306.66 316.955C1308.34 316.955 1310.27 317.159 1312.45 317.568C1314.66 317.955 1316.78 318.761 1318.83 319.989C1320.9 321.216 1322.61 323.068 1323.98 325.545C1325.34 328.023 1326.02 331.341 1326.02 335.5V370H1317.98V362.909H1317.57C1317.02 364.045 1316.11 365.261 1314.84 366.557C1313.57 367.852 1311.88 368.955 1309.76 369.864C1307.65 370.773 1305.07 371.227 1302.02 371.227ZM1303.25 364C1306.43 364 1309.11 363.375 1311.3 362.125C1313.5 360.875 1315.16 359.261 1316.27 357.284C1317.41 355.307 1317.98 353.227 1317.98 351.045V343.682C1317.64 344.091 1316.89 344.466 1315.73 344.807C1314.59 345.125 1313.27 345.409 1311.77 345.659C1310.3 345.886 1308.85 346.091 1307.44 346.273C1306.06 346.432 1304.93 346.568 1304.07 346.682C1301.98 346.955 1300.02 347.398 1298.2 348.011C1296.41 348.602 1294.95 349.5 1293.84 350.705C1292.75 351.886 1292.2 353.5 1292.2 355.545C1292.2 358.341 1293.24 360.455 1295.31 361.886C1297.4 363.295 1300.05 364 1303.25 364ZM1348.75 300.182V370H1340.71V300.182H1348.75ZM1371.53 300.182V370H1363.49V300.182H1371.53ZM1408.22 371.091C1403.18 371.091 1398.83 369.977 1395.17 367.75C1391.53 365.5 1388.72 362.364 1386.75 358.341C1384.79 354.295 1383.82 349.591 1383.82 344.227C1383.82 338.864 1384.79 334.136 1386.75 330.045C1388.72 325.932 1391.47 322.727 1395 320.432C1398.54 318.114 1402.68 316.955 1407.41 316.955C1410.13 316.955 1412.83 317.409 1415.49 318.318C1418.14 319.227 1420.57 320.705 1422.75 322.75C1424.93 324.773 1426.67 327.455 1427.96 330.795C1429.26 334.136 1429.91 338.25 1429.91 343.136V346.545H1389.54V339.591H1421.72C1421.72 336.636 1421.13 334 1419.95 331.682C1418.79 329.364 1417.13 327.534 1414.97 326.193C1412.84 324.852 1410.32 324.182 1407.41 324.182C1404.2 324.182 1401.43 324.977 1399.09 326.568C1396.77 328.136 1394.99 330.182 1393.74 332.705C1392.49 335.227 1391.86 337.932 1391.86 340.818V345.455C1391.86 349.409 1392.54 352.761 1393.91 355.511C1395.29 358.239 1397.21 360.318 1399.67 361.75C1402.12 363.159 1404.97 363.864 1408.22 363.864C1410.34 363.864 1412.25 363.568 1413.95 362.977C1415.68 362.364 1417.17 361.455 1418.42 360.25C1419.67 359.023 1420.63 357.5 1421.32 355.682L1429.09 357.864C1428.27 360.5 1426.89 362.818 1424.96 364.818C1423.03 366.795 1420.64 368.341 1417.8 369.455C1414.96 370.545 1411.77 371.091 1408.22 371.091ZM1464.92 317.636V324.455H1437.78V317.636H1464.92ZM1445.69 305.091H1453.74V355C1453.74 357.273 1454.07 358.977 1454.72 360.114C1455.41 361.227 1456.27 361.977 1457.32 362.364C1458.38 362.727 1459.51 362.909 1460.69 362.909C1461.58 362.909 1462.3 362.864 1462.87 362.773C1463.44 362.659 1463.89 362.568 1464.24 362.5L1465.87 369.727C1465.33 369.932 1464.57 370.136 1463.59 370.341C1462.61 370.568 1461.37 370.682 1459.87 370.682C1457.6 370.682 1455.37 370.193 1453.19 369.216C1451.03 368.239 1449.24 366.75 1447.8 364.75C1446.39 362.75 1445.69 360.227 1445.69 357.182V305.091ZM1482.88 370.545C1481.2 370.545 1479.76 369.943 1478.55 368.739C1477.35 367.534 1476.75 366.091 1476.75 364.409C1476.75 362.727 1477.35 361.284 1478.55 360.08C1479.76 358.875 1481.2 358.273 1482.88 358.273C1484.57 358.273 1486.01 358.875 1487.21 360.08C1488.42 361.284 1489.02 362.727 1489.02 364.409C1489.02 365.523 1488.74 366.545 1488.17 367.477C1487.62 368.409 1486.88 369.159 1485.95 369.727C1485.04 370.273 1484.02 370.545 1482.88 370.545ZM1482.88 331.682C1481.2 331.682 1479.76 331.08 1478.55 329.875C1477.35 328.67 1476.75 327.227 1476.75 325.545C1476.75 323.864 1477.35 322.42 1478.55 321.216C1479.76 320.011 1481.2 319.409 1482.88 319.409C1484.57 319.409 1486.01 320.011 1487.21 321.216C1488.42 322.42 1489.02 323.864 1489.02 325.545C1489.02 326.659 1488.74 327.682 1488.17 328.614C1487.62 329.545 1486.88 330.295 1485.95 330.864C1485.04 331.409 1484.02 331.682 1482.88 331.682ZM1650.73 317.636C1650.32 314.182 1648.66 311.5 1645.75 309.591C1642.84 307.682 1639.28 306.727 1635.05 306.727C1631.96 306.727 1629.25 307.227 1626.93 308.227C1624.64 309.227 1622.84 310.602 1621.55 312.352C1620.28 314.102 1619.64 316.091 1619.64 318.318C1619.64 320.182 1620.08 321.784 1620.97 323.125C1621.88 324.443 1623.04 325.545 1624.45 326.432C1625.86 327.295 1627.33 328.011 1628.88 328.58C1630.42 329.125 1631.84 329.568 1633.14 329.909L1640.23 331.818C1642.05 332.295 1644.07 332.955 1646.3 333.795C1648.55 334.636 1650.7 335.784 1652.74 337.239C1654.81 338.67 1656.51 340.511 1657.86 342.761C1659.2 345.011 1659.87 347.773 1659.87 351.045C1659.87 354.818 1658.88 358.227 1656.9 361.273C1654.95 364.318 1652.08 366.739 1648.31 368.534C1644.56 370.33 1640 371.227 1634.64 371.227C1629.64 371.227 1625.31 370.42 1621.65 368.807C1618.01 367.193 1615.15 364.943 1613.06 362.057C1610.99 359.17 1609.82 355.818 1609.55 352H1618.28C1618.5 354.636 1619.39 356.818 1620.93 358.545C1622.5 360.25 1624.48 361.523 1626.87 362.364C1629.28 363.182 1631.87 363.591 1634.64 363.591C1637.87 363.591 1640.76 363.068 1643.33 362.023C1645.9 360.955 1647.93 359.477 1649.43 357.591C1650.93 355.682 1651.68 353.455 1651.68 350.909C1651.68 348.591 1651.04 346.705 1649.74 345.25C1648.45 343.795 1646.74 342.614 1644.63 341.705C1642.51 340.795 1640.23 340 1637.78 339.318L1629.18 336.864C1623.73 335.295 1619.41 333.057 1616.23 330.148C1613.05 327.239 1611.46 323.432 1611.46 318.727C1611.46 314.818 1612.51 311.409 1614.63 308.5C1616.76 305.568 1619.63 303.295 1623.22 301.682C1626.83 300.045 1630.87 299.227 1635.32 299.227C1639.82 299.227 1643.82 300.034 1647.32 301.648C1650.82 303.239 1653.59 305.42 1655.64 308.193C1657.71 310.966 1658.8 314.114 1658.91 317.636H1650.73ZM1672.54 370V363.864L1695.59 338.636C1698.29 335.682 1700.52 333.114 1702.27 330.932C1704.02 328.727 1705.31 326.659 1706.15 324.727C1707.02 322.773 1707.45 320.727 1707.45 318.591C1707.45 316.136 1706.86 314.011 1705.68 312.216C1704.52 310.42 1702.93 309.034 1700.9 308.057C1698.88 307.08 1696.61 306.591 1694.09 306.591C1691.4 306.591 1689.06 307.148 1687.06 308.261C1685.09 309.352 1683.55 310.886 1682.46 312.864C1681.39 314.841 1680.86 317.159 1680.86 319.818H1672.81C1672.81 315.727 1673.76 312.136 1675.64 309.045C1677.53 305.955 1680.1 303.545 1683.35 301.818C1686.62 300.091 1690.29 299.227 1694.36 299.227C1698.45 299.227 1702.07 300.091 1705.23 301.818C1708.39 303.545 1710.87 305.875 1712.66 308.807C1714.46 311.739 1715.36 315 1715.36 318.591C1715.36 321.159 1714.89 323.67 1713.96 326.125C1713.05 328.557 1711.46 331.273 1709.19 334.273C1706.94 337.25 1703.81 340.886 1699.81 345.182L1684.13 361.955V362.5H1716.59V370H1672.54ZM1754.26 370.955C1749.76 370.955 1745.74 370.182 1742.22 368.636C1738.72 367.091 1735.94 364.943 1733.87 362.193C1731.82 359.42 1730.71 356.205 1730.53 352.545H1739.12C1739.3 354.795 1740.07 356.739 1741.44 358.375C1742.8 359.989 1744.59 361.239 1746.79 362.125C1748.99 363.011 1751.44 363.455 1754.12 363.455C1757.12 363.455 1759.78 362.932 1762.1 361.886C1764.41 360.841 1766.23 359.386 1767.55 357.523C1768.87 355.659 1769.53 353.5 1769.53 351.045C1769.53 348.477 1768.89 346.216 1767.62 344.261C1766.35 342.284 1764.48 340.739 1762.03 339.625C1759.57 338.511 1756.57 337.955 1753.03 337.955H1747.44V330.455H1753.03C1755.8 330.455 1758.23 329.955 1760.32 328.955C1762.44 327.955 1764.09 326.545 1765.27 324.727C1766.47 322.909 1767.07 320.773 1767.07 318.318C1767.07 315.955 1766.55 313.898 1765.51 312.148C1764.46 310.398 1762.98 309.034 1761.07 308.057C1759.19 307.08 1756.96 306.591 1754.39 306.591C1751.98 306.591 1749.71 307.034 1747.57 307.92C1745.46 308.784 1743.73 310.045 1742.39 311.705C1741.05 313.341 1740.32 315.318 1740.21 317.636H1732.03C1732.16 313.977 1733.27 310.773 1735.34 308.023C1737.4 305.25 1740.11 303.091 1743.45 301.545C1746.81 300 1750.51 299.227 1754.53 299.227C1758.85 299.227 1762.55 300.102 1765.64 301.852C1768.73 303.58 1771.11 305.864 1772.77 308.705C1774.43 311.545 1775.26 314.614 1775.26 317.909C1775.26 321.841 1774.22 325.193 1772.15 327.966C1770.11 330.739 1767.32 332.659 1763.8 333.727V334.273C1768.21 335 1771.65 336.875 1774.13 339.898C1776.61 342.898 1777.85 346.614 1777.85 351.045C1777.85 354.841 1776.81 358.25 1774.74 361.273C1772.7 364.273 1769.9 366.636 1766.36 368.364C1762.81 370.091 1758.78 370.955 1754.26 370.955ZM1795.88 370H1787.02L1812.65 300.182H1821.38L1847.02 370H1838.15L1817.29 311.227H1816.74L1795.88 370ZM1799.15 342.727H1834.88V350.227H1799.15V342.727ZM1878.89 299.227C1881.76 299.25 1884.62 299.795 1887.48 300.864C1890.35 301.932 1892.96 303.705 1895.32 306.182C1897.69 308.636 1899.59 311.989 1901.02 316.239C1902.45 320.489 1903.16 325.818 1903.16 332.227C1903.16 338.432 1902.57 343.943 1901.39 348.761C1900.23 353.557 1898.55 357.602 1896.35 360.898C1894.16 364.193 1891.51 366.693 1888.37 368.398C1885.26 370.102 1881.73 370.955 1877.8 370.955C1873.89 370.955 1870.4 370.182 1867.34 368.636C1864.29 367.068 1861.79 364.898 1859.84 362.125C1857.9 359.33 1856.66 356.091 1856.12 352.409H1864.44C1865.19 355.614 1866.68 358.261 1868.9 360.352C1871.15 362.42 1874.12 363.455 1877.8 363.455C1883.19 363.455 1887.44 361.102 1890.55 356.398C1893.69 351.693 1895.26 345.045 1895.26 336.455H1894.71C1893.44 338.364 1891.93 340.011 1890.18 341.398C1888.43 342.784 1886.48 343.852 1884.35 344.602C1882.21 345.352 1879.94 345.727 1877.53 345.727C1873.53 345.727 1869.86 344.739 1866.52 342.761C1863.2 340.761 1860.54 338.023 1858.54 334.545C1856.56 331.045 1855.57 327.045 1855.57 322.545C1855.57 318.273 1856.53 314.364 1858.44 310.818C1860.37 307.25 1863.07 304.409 1866.55 302.295C1870.05 300.182 1874.16 299.159 1878.89 299.227ZM1878.89 306.727C1876.03 306.727 1873.45 307.443 1871.15 308.875C1868.88 310.284 1867.07 312.193 1865.73 314.602C1864.41 316.989 1863.76 319.636 1863.76 322.545C1863.76 325.455 1864.39 328.102 1865.66 330.489C1866.96 332.852 1868.72 334.739 1870.95 336.148C1873.2 337.534 1875.76 338.227 1878.62 338.227C1880.78 338.227 1882.79 337.807 1884.65 336.966C1886.52 336.102 1888.14 334.932 1889.53 333.455C1890.94 331.955 1892.04 330.261 1892.84 328.375C1893.63 326.466 1894.03 324.477 1894.03 322.409C1894.03 319.682 1893.37 317.125 1892.05 314.739C1890.76 312.352 1888.96 310.42 1886.66 308.943C1884.39 307.466 1881.8 306.727 1878.89 306.727ZM1920.13 370.545C1918.45 370.545 1917.01 369.943 1915.8 368.739C1914.6 367.534 1914 366.091 1914 364.409C1914 362.727 1914.6 361.284 1915.8 360.08C1917.01 358.875 1918.45 358.273 1920.13 358.273C1921.82 358.273 1923.26 358.875 1924.46 360.08C1925.67 361.284 1926.27 362.727 1926.27 364.409C1926.27 365.523 1925.99 366.545 1925.42 367.477C1924.87 368.409 1924.13 369.159 1923.2 369.727C1922.29 370.273 1921.27 370.545 1920.13 370.545ZM1946.57 370.545C1944.89 370.545 1943.45 369.943 1942.24 368.739C1941.04 367.534 1940.43 366.091 1940.43 364.409C1940.43 362.727 1941.04 361.284 1942.24 360.08C1943.45 358.875 1944.89 358.273 1946.57 358.273C1948.25 358.273 1949.7 358.875 1950.9 360.08C1952.11 361.284 1952.71 362.727 1952.71 364.409C1952.71 365.523 1952.42 366.545 1951.86 367.477C1951.31 368.409 1950.57 369.159 1949.64 369.727C1948.73 370.273 1947.71 370.545 1946.57 370.545ZM1973.01 370.545C1971.33 370.545 1969.88 369.943 1968.68 368.739C1967.47 367.534 1966.87 366.091 1966.87 364.409C1966.87 362.727 1967.47 361.284 1968.68 360.08C1969.88 358.875 1971.33 358.273 1973.01 358.273C1974.69 358.273 1976.13 358.875 1977.34 360.08C1978.54 361.284 1979.14 362.727 1979.14 364.409C1979.14 365.523 1978.86 366.545 1978.29 367.477C1977.75 368.409 1977.01 369.159 1976.08 369.727C1975.17 370.273 1974.14 370.545 1973.01 370.545ZM1999.45 370.545C1997.76 370.545 1996.32 369.943 1995.12 368.739C1993.91 367.534 1993.31 366.091 1993.31 364.409C1993.31 362.727 1993.91 361.284 1995.12 360.08C1996.32 358.875 1997.76 358.273 1999.45 358.273C2001.13 358.273 2002.57 358.875 2003.78 360.08C2004.98 361.284 2005.58 362.727 2005.58 364.409C2005.58 365.523 2005.3 366.545 2004.73 367.477C2004.18 368.409 2003.45 369.159 2002.51 369.727C2001.61 370.273 2000.58 370.545 1999.45 370.545ZM2042.66 370H2021.11V300.182H2043.61C2050.38 300.182 2056.18 301.58 2061 304.375C2065.82 307.148 2069.51 311.136 2072.08 316.341C2074.64 321.523 2075.93 327.727 2075.93 334.955C2075.93 342.227 2074.63 348.489 2072.04 353.739C2069.45 358.966 2065.68 362.989 2060.72 365.807C2055.77 368.602 2049.75 370 2042.66 370ZM2029.57 362.5H2042.11C2047.88 362.5 2052.67 361.386 2056.46 359.159C2060.26 356.932 2063.09 353.761 2064.95 349.648C2066.82 345.534 2067.75 340.636 2067.75 334.955C2067.75 329.318 2066.83 324.466 2064.99 320.398C2063.14 316.307 2060.39 313.17 2056.74 310.989C2053.08 308.784 2048.52 307.682 2043.07 307.682H2029.57V362.5ZM2111.11 299.227C2113.97 299.25 2116.84 299.795 2119.7 300.864C2122.57 301.932 2125.18 303.705 2127.54 306.182C2129.91 308.636 2131.8 311.989 2133.24 316.239C2134.67 320.489 2135.38 325.818 2135.38 332.227C2135.38 338.432 2134.79 343.943 2133.61 348.761C2132.45 353.557 2130.77 357.602 2128.57 360.898C2126.38 364.193 2123.72 366.693 2120.59 368.398C2117.47 370.102 2113.95 370.955 2110.02 370.955C2106.11 370.955 2102.62 370.182 2099.55 368.636C2096.51 367.068 2094.01 364.898 2092.05 362.125C2090.12 359.33 2088.88 356.091 2088.34 352.409H2096.66C2097.41 355.614 2098.89 358.261 2101.12 360.352C2103.37 362.42 2106.34 363.455 2110.02 363.455C2115.41 363.455 2119.66 361.102 2122.77 356.398C2125.91 351.693 2127.47 345.045 2127.47 336.455H2126.93C2125.66 338.364 2124.14 340.011 2122.39 341.398C2120.64 342.784 2118.7 343.852 2116.57 344.602C2114.43 345.352 2112.16 345.727 2109.75 345.727C2105.75 345.727 2102.08 344.739 2098.74 342.761C2095.42 340.761 2092.76 338.023 2090.76 334.545C2088.78 331.045 2087.79 327.045 2087.79 322.545C2087.79 318.273 2088.75 314.364 2090.66 310.818C2092.59 307.25 2095.29 304.409 2098.77 302.295C2102.27 300.182 2106.38 299.159 2111.11 299.227ZM2111.11 306.727C2108.25 306.727 2105.67 307.443 2103.37 308.875C2101.1 310.284 2099.29 312.193 2097.95 314.602C2096.63 316.989 2095.97 319.636 2095.97 322.545C2095.97 325.455 2096.61 328.102 2097.88 330.489C2099.18 332.852 2100.94 334.739 2103.17 336.148C2105.42 337.534 2107.97 338.227 2110.84 338.227C2113 338.227 2115.01 337.807 2116.87 336.966C2118.74 336.102 2120.36 334.932 2121.75 333.455C2123.16 331.955 2124.26 330.261 2125.05 328.375C2125.85 326.466 2126.25 324.477 2126.25 322.409C2126.25 319.682 2125.59 317.125 2124.27 314.739C2122.97 312.352 2121.18 310.42 2118.88 308.943C2116.61 307.466 2114.02 306.727 2111.11 306.727ZM2171.02 299.227C2173.88 299.25 2176.74 299.795 2179.61 300.864C2182.47 301.932 2185.09 303.705 2187.45 306.182C2189.81 308.636 2191.71 311.989 2193.14 316.239C2194.57 320.489 2195.29 325.818 2195.29 332.227C2195.29 338.432 2194.7 343.943 2193.52 348.761C2192.36 353.557 2190.68 357.602 2188.47 360.898C2186.29 364.193 2183.63 366.693 2180.49 368.398C2177.38 370.102 2173.86 370.955 2169.93 370.955C2166.02 370.955 2162.53 370.182 2159.46 368.636C2156.41 367.068 2153.91 364.898 2151.96 362.125C2150.03 359.33 2148.79 356.091 2148.24 352.409H2156.56C2157.31 355.614 2158.8 358.261 2161.03 360.352C2163.28 362.42 2166.24 363.455 2169.93 363.455C2175.31 363.455 2179.56 361.102 2182.68 356.398C2185.81 351.693 2187.38 345.045 2187.38 336.455H2186.84C2185.56 338.364 2184.05 340.011 2182.3 341.398C2180.55 342.784 2178.61 343.852 2176.47 344.602C2174.34 345.352 2172.06 345.727 2169.65 345.727C2165.65 345.727 2161.98 344.739 2158.64 342.761C2155.32 340.761 2152.66 338.023 2150.66 334.545C2148.69 331.045 2147.7 327.045 2147.7 322.545C2147.7 318.273 2148.65 314.364 2150.56 310.818C2152.49 307.25 2155.2 304.409 2158.68 302.295C2162.18 300.182 2166.29 299.159 2171.02 299.227ZM2171.02 306.727C2168.15 306.727 2165.57 307.443 2163.28 308.875C2161.01 310.284 2159.2 312.193 2157.86 314.602C2156.54 316.989 2155.88 319.636 2155.88 322.545C2155.88 325.455 2156.52 328.102 2157.79 330.489C2159.09 332.852 2160.85 334.739 2163.07 336.148C2165.32 337.534 2167.88 338.227 2170.74 338.227C2172.9 338.227 2174.91 337.807 2176.78 336.966C2178.64 336.102 2180.27 334.932 2181.65 333.455C2183.06 331.955 2184.16 330.261 2184.96 328.375C2185.76 326.466 2186.15 324.477 2186.15 322.409C2186.15 319.682 2185.49 317.125 2184.18 314.739C2182.88 312.352 2181.09 310.42 2178.79 308.943C2176.52 307.466 2173.93 306.727 2171.02 306.727ZM2209.92 370V300.182H2252.06V307.682H2218.38V331.273H2249.88V338.773H2218.38V362.5H2252.61V370H2209.92Z" fill="white"/>
</svg>
